<?xml version="1.0" encoding="utf-8"?>
<!-- Generator: Adobe Illustrator 14.0.0, SVG Export Plug-In . SVG Version: 6.00 Build 43363)  -->
<!DOCTYPE svg PUBLIC "-//W3C//DTD SVG 1.1//EN" "http://www.w3.org/Graphics/SVG/1.1/DTD/svg11.dtd">
<svg version="1.1" id="Layer_1" xmlns="http://www.w3.org/2000/svg" xmlns:xlink="http://www.w3.org/1999/xlink" x="0px" y="0px"
	 width="90px" height="90px" viewBox="-41 19 90 90" enable-background="new -41 19 90 90" xml:space="preserve">
<path fill="#FFFFFF" d="M48.942,60.114c0.095-0.183,0.07-0.407-0.058-0.571c-0.132-0.164-0.343-0.239-0.544-0.19
	c-0.096,0.024-2.246,0.548-3.752,2.114c-0.415-0.131-0.847-0.37-1.287-0.715c-1.327-1.034-2.742-3.559-4.096-7.301
	c-0.045-3.309-1.744-5.767-1.816-5.87c-0.147-0.211-0.428-0.286-0.659-0.181c-0.235,0.106-0.36,0.364-0.301,0.613
	c0.008,0.025,0.65,2.673,1.706,5.627c-0.008,1.2-0.295,2.343-0.798,3.429c-0.059-0.174-0.109-0.351-0.171-0.525
	c-0.173-0.487-0.353-0.97-0.545-1.447c-0.55-1.368-1.201-2.685-1.91-3.966c0.15-0.03,0.289-0.118,0.367-0.261
	c0.129-0.239,0.059-0.538-0.166-0.693c0,0-0.196-0.139-0.53-0.33c-0.524-0.419-1.19-1.23-1.442-2.743
	c-0.1-0.601,0-1.115,0.299-1.564c1.494,0.011,2.341-1.527,2.374-1.592c0.096-0.188,0.07-0.41-0.057-0.573
	c-0.132-0.164-0.343-0.237-0.544-0.188c-0.059,0.014-1.268,0.308-2.176,1.181c-0.178-0.071-0.361-0.183-0.55-0.33
	c-0.73-0.571-1.521-1.984-2.286-4.089c-0.039-1.963-1.045-3.423-1.092-3.486c-0.146-0.211-0.424-0.286-0.657-0.18
	c-0.234,0.105-0.359,0.364-0.3,0.613c0.017,0.062,0.374,1.538,0.981,3.243c-0.016,0.869-0.279,1.682-0.764,2.439
	c-0.887-0.871-1.801-1.716-2.775-2.491c-1.043-0.827-2.133-1.599-3.266-2.31c-0.039-0.023-0.075-0.049-0.115-0.072
	c-0.36-0.224-0.721-0.445-1.09-0.658c-5.235-3.02-11.288-4.783-17.743-4.878V19H2.075v13.168c-6.453,0.097-12.507,1.859-17.743,4.88
	c-0.367,0.211-0.73,0.431-1.09,0.656c-0.04,0.023-0.077,0.048-0.117,0.072c-1.131,0.711-2.222,1.483-3.265,2.31
	c-1.531,1.215-2.962,2.548-4.279,3.987c-0.289,0.317-0.575,0.641-0.854,0.968c-0.536,0.627-1.049,1.272-1.541,1.933
	c-0.405,0.549-0.796,1.108-1.173,1.678c-1.333,2.017-2.468,4.175-3.379,6.446c-0.192,0.476-0.372,0.958-0.544,1.447
	c-0.832,2.356-1.428,4.82-1.757,7.366c-0.055,0.429-0.101,0.86-0.14,1.291c-0.102,1.113-0.159,2.236-0.159,3.374
	c0,1.864,0.143,3.696,0.415,5.486c0.06,0.392,0.129,0.781,0.199,1.17c0.257,1.375,0.613,2.715,1.023,4.033
	c-1.13-1.737-3.001-2.538-3.086-2.575c-0.22-0.093-0.476-0.023-0.626,0.166c-0.146,0.188-0.152,0.452-0.008,0.646
	c0.059,0.081,1.41,1.9,3.073,2.759c0.257,0.511,0.396,1.058,0.416,1.627c0.022,0.648-0.166,1.22-0.583,1.751
	c-1.812,0.58-3.579,1.985-3.655,2.045c-0.194,0.157-0.256,0.426-0.147,0.647c0.105,0.226,0.355,0.348,0.595,0.294
	c0.101-0.019,2.416-0.537,3.812-2.048c0.685-0.177,1.234-0.154,1.613,0.067c0.867,0.512,1.287,3.705,1.07,8.137
	c-0.052,0.646-0.065,1.055-0.065,1.055c-0.009,0.29,0.213,0.536,0.504,0.553c0.009,0,0.02,0,0.031,0c0.276,0,0.51-0.211,0.533-0.491
	c0,0,0.033-0.403,0.064-1.049c0.139-1.756,0.386-3.292,0.709-4.525c1.235,1.899,2.628,3.689,4.188,5.324
	c0.278,0.291,0.562,0.577,0.852,0.858c2.151,2.111,4.563,3.958,7.183,5.49c0.408,0.241,0.822,0.47,1.239,0.696
	c5.118,2.732,10.958,4.289,17.157,4.306c0.032,0,0.061,0,0.09,0c0.028,0,0.057,0,0.088,0c6.199-0.017,12.039-1.573,17.157-4.306
	c0.419-0.227,0.83-0.455,1.241-0.696c2.618-1.531,5.032-3.379,7.182-5.49c0.289-0.281,0.574-0.568,0.852-0.858
	c2.425-2.538,4.484-5.425,6.1-8.573c0.177-0.343,0.344-0.689,0.51-1.039c1.091-2.304,1.93-4.749,2.518-7.286
	c-0.221,3.043,0.039,5.902,0.054,6.034c0.024,0.264,0.241,0.472,0.506,0.485c0.009,0,0.018,0,0.026,0
	c0.254,0,0.478-0.183,0.522-0.437c0.029-0.146,0.668-3.606,0.051-7.028c0.325-2.895,1.079-4.7,2.184-5.224
	c1.197-0.572,2.422-0.557,3.61,0.033c1.041,1.254,2.078,1.677,2.125,1.692c0.221,0.089,0.479,0.02,0.624-0.175
	c0.145-0.188,0.145-0.457-0.002-0.647c-0.031-0.043-0.788-1.022-2.053-1.715c-0.819-1.049-1.37-2.382-1.635-3.965
	c-0.201-1.207,0.037-2.271,0.708-3.167C47.522,62.88,48.888,60.225,48.942,60.114z M32.604,65.992
	c-0.338,1.117-1.354,2.027-3.018,2.715c-1.22,0.065-2.333,0.263-3.248,0.477c0.004-0.203,0.011-0.402,0.011-0.606
	c0-2.215-0.133-4.382-0.382-6.487c2.26,0.356,4.366,0.765,6.323,1.209C32.676,64.195,32.866,65.136,32.604,65.992z M34.216,70.41
	c0.466,0.181,0.916,0.387,1.326,0.645c0.894,0.556,1.598,1.399,2.108,2.514c-1.081-0.438-2.262-0.855-3.543-1.247
	C34.165,71.69,34.19,71.051,34.216,70.41z M25.742,47.183c-0.119,0.39-0.408,0.739-0.862,1.037
	c-0.919-0.047-1.764,0.139-2.452,0.372c-0.451-1.054-0.932-2.084-1.45-3.058c1.712,0.264,3.299,0.571,4.794,0.899
	C25.812,46.69,25.814,46.946,25.742,47.183z M28.952,51.367c0.043-0.126,0.095-0.237,0.145-0.347c0.355,0.709,0.7,1.426,1.015,2.167
	c-0.333-0.076-0.683-0.146-1.031-0.218C29.103,52.447,29.077,51.902,28.952,51.367z M28.516,55.673
	c0.021-0.05,0.265-0.681,0.428-1.556c0.574,0.125,1.151,0.25,1.69,0.385c0.734,1.938,1.297,3.975,1.717,6.079
	c-0.207-0.063-0.416-0.144-0.627-0.25c-1.577-2.024-3.482-3.523-3.563-3.586c-0.201-0.158-0.486-0.149-0.681,0.021
	c-0.194,0.169-0.237,0.451-0.107,0.672c0.061,0.105,1.522,2.557,3.646,3.731c0.182,0.24,0.363,0.504,0.539,0.775
	c-1.213-0.262-2.461-0.509-3.773-0.737c-0.473-0.081-0.953-0.161-1.438-0.239c-0.176-0.026-0.356-0.053-0.535-0.079
	c-0.377-2.688-0.947-5.266-1.689-7.698c1.166,0.188,2.274,0.396,3.349,0.613c-0.042,0.936,0.012,1.66,0.017,1.713
	c0.02,0.247,0.209,0.449,0.454,0.486c0.026,0.004,0.055,0.005,0.078,0.005C28.235,56.01,28.436,55.879,28.516,55.673z
	 M27.569,52.656c-1.235-0.249-2.5-0.488-3.843-0.697c-0.218-0.65-0.461-1.277-0.705-1.902c0.683-0.149,1.444-0.379,2.106-0.739
	c0.569,0.074,1.102,0.263,1.583,0.563c0.549,0.343,0.917,0.823,1.123,1.461C27.71,51.77,27.628,52.218,27.569,52.656z
	 M22.736,42.413c0.035,0.061,0.895,1.5,2.152,2.219c0.121,0.162,0.242,0.339,0.357,0.526c-1.577-0.325-3.236-0.616-4.963-0.867
	c-1.501-2.571-3.237-4.814-5.157-6.648c1.019,0.142,1.996,0.296,2.924,0.467c1.656,1.123,3.197,2.444,4.636,3.895
	C22.648,42.14,22.658,42.287,22.736,42.413z M22.917,53.003c0.767,2.429,1.363,5.01,1.761,7.713
	c-2.752-0.395-5.675-0.718-8.735-0.961c-0.243-2.694-0.598-5.257-1.049-7.666C17.743,52.32,20.424,52.63,22.917,53.003z
	 M15.212,70.183c-0.05,3.066-0.236,6.062-0.563,8.932c-2.284-0.214-4.629-0.367-6.992-0.457c0.105-2.865,0.169-5.849,0.18-8.898
	C10.4,69.843,12.866,69.984,15.212,70.183z M14.512,80.236c-0.396,3.148-0.959,6.131-1.672,8.869
	c-1.887-0.197-3.832-0.337-5.798-0.424c0.242-2.753,0.432-5.735,0.565-8.875C10.02,79.891,12.325,80.037,14.512,80.236z
	 M15.629,80.341c2.914,0.297,5.604,0.684,8.045,1.142c-0.806,3.188-1.897,6.15-3.228,8.81c-0.536-0.116-1.082-0.229-1.646-0.335
	c-1.525-0.286-3.142-0.528-4.817-0.726C14.674,86.52,15.229,83.536,15.629,80.341z M15.757,79.224
	c0.317-2.842,0.51-5.835,0.56-8.942c2.665,0.245,5.176,0.56,7.511,0.932c0.453,0.071,0.897,0.147,1.336,0.224
	c-0.16,3.115-0.582,6.115-1.228,8.953C21.378,79.907,18.624,79.518,15.757,79.224z M33.119,70.062
	c-0.022,0.652-0.047,1.3-0.099,1.94c-0.98-0.276-2.004-0.541-3.08-0.791c-0.442-0.101-0.891-0.201-1.347-0.297
	c-0.473-0.101-0.951-0.198-1.438-0.295c-0.077-0.015-0.155-0.025-0.231-0.041c0.899-0.173,1.921-0.43,2.895-0.814
	c0.201-0.009,0.405-0.014,0.613-0.014C31.397,69.754,32.293,69.859,33.119,70.062z M31.432,53.508
	c-0.467-1.175-0.998-2.307-1.567-3.41c0.017-0.008,0.029-0.021,0.045-0.031c0.304-0.142,0.655-0.217,1.047-0.217
	c0.707,0,1.426,0.237,2.016,0.494c0.835,1.366,1.6,2.78,2.243,4.263C34.041,54.219,32.778,53.853,31.432,53.508z M29.671,41.982
	c0.638,1.408,1.294,2.379,1.96,2.898c0.181,0.142,0.364,0.263,0.546,0.358c-0.312,0.608-0.415,1.3-0.293,2.041
	c0.115,0.678,0.301,1.243,0.524,1.717c-0.989-0.28-2.112-0.3-2.961,0.105c-0.413,0.196-0.762,0.515-1.05,0.956
	c-0.289-0.435-0.661-0.796-1.121-1.084c-0.337-0.209-0.692-0.378-1.061-0.503c0.256-0.296,0.441-0.622,0.549-0.976
	c0.223-0.733,0.103-1.555-0.356-2.455c0.848-0.029,1.626-0.492,2.32-1.378C29.142,43.131,29.46,42.571,29.671,41.982z
	 M21.952,38.978c1.997,1.296,3.841,2.802,5.532,4.461c-0.531,0.493-1.078,0.637-1.674,0.436c-1.56-1.944-3.281-3.713-5.175-5.227
	C21.093,38.753,21.529,38.865,21.952,38.978z M18.462,36.985c-0.053-0.011-0.104-0.021-0.16-0.03
	c-0.102-0.067-0.205-0.14-0.31-0.207C18.15,36.825,18.307,36.907,18.462,36.985z M15.372,36.499
	c-0.593-0.081-1.197-0.153-1.806-0.224c-0.692-0.554-1.399-1.061-2.129-1.51C12.79,35.239,14.103,35.821,15.372,36.499z
	 M13.241,37.407c2.109,1.758,4.019,4.025,5.664,6.692c-2.029-0.267-4.129-0.485-6.276-0.649c-0.885-2.493-1.904-4.64-3.032-6.375
	C10.857,37.164,12.073,37.276,13.241,37.407z M11.803,44.534c0.652,1.941,1.216,4.05,1.689,6.29
	c-0.749-0.055-1.505-0.104-2.273-0.146c-1.312-0.072-2.652-0.125-4.01-0.166c-0.167-2.211-0.368-4.3-0.596-6.226
	C8.4,44.337,10.131,44.42,11.803,44.534z M6.575,59.29c-1.299-0.029-2.615-0.045-3.945-0.045c-1.332,0-2.647,0.016-3.948,0.045
	c0.091-2.659,0.223-5.222,0.394-7.641c0.731-0.017,1.469-0.028,2.214-0.035c0.446-0.003,0.892-0.005,1.34-0.005
	c0.449,0,0.895,0.002,1.339,0.005c0.745,0.005,1.482,0.02,2.213,0.035C6.352,54.068,6.484,56.63,6.575,59.29z M6.099,50.485
	c-0.713-0.016-1.429-0.027-2.15-0.032c-0.438-0.004-0.877-0.007-1.319-0.007c-0.443,0-0.88,0.003-1.318,0.007
	c-0.72,0.004-1.439,0.018-2.15,0.032c0.169-2.217,0.372-4.301,0.603-6.223c0.942-0.021,1.896-0.032,2.867-0.032
	c0.972,0,1.922,0.012,2.865,0.032C5.727,46.183,5.928,48.267,6.099,50.485z M2.628,33.266c0.008,0,0.561,0.106,1.277,2.416
	c-0.427-0.005-0.85-0.009-1.277-0.009c-0.425,0-0.852,0.004-1.278,0.009C2.067,33.373,2.62,33.266,2.628,33.266z M-1.212,43.125
	c-1.651,0.049-3.296,0.126-4.923,0.235c0.956-2.594,2.047-4.738,3.221-6.375c0.909-0.05,1.841-0.086,2.791-0.111
	C-0.492,38.405-0.861,40.436-1.212,43.125z M-19.761,80.597c-1.471,0.301-2.871,0.629-4.181,0.983
	c-0.044,0.015-0.084,0.025-0.127,0.039c0.356-0.734,0.886-1.592,1.589-2.559c1.05-0.739,1.683-1.694,2.007-2.291
	C-20.278,78.069-20.044,79.352-19.761,80.597z M-24.854,53.186c0.994-2.358,2.208-4.569,3.61-6.6
	c1.691-0.392,3.538-0.746,5.522-1.053c-1.057,1.98-1.98,4.133-2.749,6.427C-20.743,52.315-22.877,52.724-24.854,53.186z
	 M-17.659,53.003c2.493-0.375,5.172-0.683,8.021-0.914c-0.45,2.409-0.805,4.972-1.049,7.667c-3.06,0.241-5.982,0.565-8.733,0.961
	C-19.023,58.015-18.426,55.434-17.659,53.003z M-9.659,60.843c2.307-0.167,4.708-0.291,7.197-0.362
	c-0.078,2.626-0.119,5.337-0.119,8.097c0,0.009,0,0.014,0,0.02c-2.544,0.084-5.009,0.228-7.384,0.427
	c0-0.148-0.003-0.297-0.003-0.446C-9.969,65.942-9.862,63.355-9.659,60.843z M-2.58,69.759c0.013,3.048,0.073,6.032,0.183,8.898
	c-2.365,0.09-4.709,0.243-6.996,0.457c-0.322-2.869-0.513-5.863-0.564-8.932C-7.609,69.984-5.146,69.843-2.58,69.759z
	 M-5.959,50.678c-0.77,0.041-1.526,0.092-2.275,0.146c0.473-2.24,1.036-4.349,1.69-6.29c1.67-0.114,3.402-0.197,5.19-0.249
	c-0.231,1.927-0.428,4.016-0.597,6.227C-3.31,50.553-4.647,50.606-5.959,50.678z M-1.643,33.899c-0.636,0.537-1.25,1.195-1.839,1.96
	c-0.907,0.056-1.807,0.121-2.696,0.202C-4.735,35.104-3.219,34.372-1.643,33.899z M-6.182,34.763
	c-0.728,0.45-1.436,0.956-2.126,1.511c-0.611,0.069-1.214,0.142-1.807,0.224C-8.846,35.821-7.535,35.239-6.182,34.763z
	 M-12.736,36.75c-0.104,0.067-0.206,0.14-0.31,0.207c-0.053,0.01-0.107,0.02-0.162,0.03C-13.051,36.908-12.895,36.825-12.736,36.75z
	 M-7.983,37.407c1.167-0.133,2.382-0.244,3.643-0.333c-1.127,1.736-2.148,3.884-3.033,6.375c-2.147,0.164-4.249,0.383-6.275,0.649
	C-12.002,41.433-10.094,39.165-7.983,37.407z M-24.587,45.947c0.255-0.302,0.514-0.6,0.779-0.894
	c2.088-2.323,4.48-4.367,7.111-6.075c0.425-0.113,0.864-0.224,1.318-0.33c-2.439,1.95-4.625,4.284-6.5,6.922
	c-0.343,0.08-1.017,0.244-1.017,0.244s-1.527,0.302-1.437,0.384c-0.207,0.059-0.411,0.119-0.613,0.178
	C-24.825,46.231-24.706,46.089-24.587,45.947z M-21.897,71.801c0.29-0.057,0.594-0.11,0.892-0.167
	c0.071,1.309,0.197,2.59,0.356,3.855c-0.164-0.018-0.333,0.036-0.45,0.165c-0.043,0.049-1.067,1.171-2.138,2.626
	c-0.862,0.563-1.836,0.808-2.96,0.735c-0.119-0.011-0.231-0.03-0.343-0.052c-0.501-1.87-0.884-3.8-1.11-5.79
	C-25.912,72.678-23.994,72.215-21.897,71.801z M-28.754,73.503c0.009-0.002,0.018-0.006,0.026-0.009
	c0.189,1.618,0.503,3.187,0.876,4.729c-0.364-0.407-0.64-0.968-0.826-1.696C-28.619,75.392-28.684,74.269-28.754,73.503z
	 M-29.754,76.625c-0.108,1.694-0.509,2.769-1.108,2.952c-0.059,0.02-0.122,0.024-0.183,0.036c-0.524-1.571-0.966-3.181-1.262-4.839
	c0.702-0.292,1.484-0.574,2.301-0.848C-30.021,74.689-29.977,75.669-29.754,76.625z M-30.542,56.028
	c1.174-0.419,2.467-0.816,3.87-1.194c-0.861,2.422-1.504,4.972-1.894,7.619c-1.39,0.34-2.699,0.702-3.93,1.083
	C-32.12,60.931-31.458,58.417-30.542,56.028z M-32.858,68.577c0-1.269,0.069-2.524,0.2-3.758c1.213-0.391,2.522-0.764,3.924-1.116
	c-0.186,1.596-0.283,3.224-0.283,4.875c0,1.265,0.056,2.514,0.166,3.745c-0.026,0.008-0.053,0.019-0.08,0.026
	c-0.094-0.157-0.262-0.262-0.455-0.262c-0.267,0-0.493,0.196-0.53,0.461c-0.002,0.011-0.008,0.056-0.016,0.13
	c-0.905,0.298-1.773,0.605-2.566,0.933C-32.734,71.965-32.858,70.286-32.858,68.577z M-28.902,87.296
	c-0.214-1.711-0.657-3.089-1.478-3.575c-0.377-0.221-0.823-0.336-1.326-0.336c-0.019,0-0.037,0-0.057,0.002
	c0.199-0.481,0.291-0.995,0.272-1.536c-0.015-0.397-0.074-0.784-0.179-1.161c0.392,0.047,0.767,0.02,1.119-0.091
	c0.75-0.229,1.278-0.919,1.584-2.059c0.769,1.136,1.823,1.48,2.692,1.544c0.688,0.045,1.314-0.009,1.918-0.16
	c-0.811,1.318-1.25,2.402-1.31,3.242c-0.02,0.295,0.019,0.578,0.117,0.852c-0.825,0.02-1.483,0.258-1.959,0.706
	C-28.107,85.294-28.558,86.227-28.902,87.296z M-24.047,85.671c1.805,1.133,4.547,1.61,4.682,1.635
	c0.26,0.041,0.501-0.103,0.591-0.342c0.089-0.24-0.005-0.51-0.223-0.644c-0.119-0.073-2.814-1.706-5.245-2.176
	c-0.26-0.297-0.377-0.594-0.355-0.902c0.006-0.091,0.022-0.19,0.043-0.294c0.199-0.06,0.393-0.119,0.6-0.18
	c0.432-0.122,0.875-0.242,1.332-0.36c0.459-0.115,0.928-0.231,1.412-0.345c0.552-0.127,1.127-0.248,1.711-0.367
	c0.805,3.188,1.893,6.162,3.22,8.844c-0.212,0.052-0.423,0.104-0.629,0.157c-1.262,0.326-2.423,0.688-3.462,1.086
	C-21.781,89.915-23,87.854-24.047,85.671z M-14.619,99.427c-2.726-1.516-5.231-3.378-7.456-5.529
	c0.424-0.233,0.896-0.463,1.42-0.687c1.869,2.336,3.998,4.392,6.335,6.103C-14.419,99.354-14.523,99.39-14.619,99.427z
	 M-15.187,90.292c-1.331-2.657-2.423-5.621-3.227-8.81c2.438-0.458,5.128-0.849,8.044-1.142c0.398,3.195,0.955,6.179,1.645,8.892
	c-1.673,0.197-3.292,0.439-4.817,0.726C-14.105,90.061-14.65,90.175-15.187,90.292z M-13.231,100.157
	c0.024-0.01,0.054-0.019,0.081-0.028c0.139,0.094,0.274,0.188,0.414,0.277C-12.903,100.324-13.067,100.239-13.231,100.157z
	 M-11.766,99.713c0.532-0.145,1.092-0.28,1.679-0.405c1.231,1.204,2.537,2.238,3.906,3.082C-8.132,101.71-10,100.809-11.766,99.713z
	 M-6.15,93.748c-0.408-1.108-0.781-2.283-1.125-3.505c1.764-0.182,3.633-0.32,5.597-0.407c0.139,1.467,0.294,2.861,0.464,4.172
	c0.145,1.116,0.293,2.114,0.444,3.016c-1.323,0.061-2.612,0.152-3.856,0.28C-5.164,96.233-5.675,95.049-6.15,93.748z M-4.032,98.408
	c1.12-0.104,2.279-0.18,3.466-0.231c0.515,2.763,1.045,4.408,1.531,5.385C-0.794,102.868-2.507,101.096-4.032,98.408z M2.628,103.89
	c-0.012,0-1.015-0.194-2.075-5.75c0.687-0.02,1.377-0.033,2.075-0.033c0.698,0,1.389,0.017,2.075,0.033
	C3.642,103.695,2.642,103.89,2.628,103.89z M5.373,93.865c-0.151,1.174-0.308,2.203-0.463,3.115
	c-0.754-0.021-1.515-0.037-2.283-0.037c-0.771,0-1.531,0.016-2.285,0.037c-0.153-0.912-0.308-1.941-0.46-3.115
	c-0.167-1.277-0.319-2.639-0.456-4.068c1.043-0.031,2.108-0.049,3.201-0.049c1.09,0,2.158,0.018,3.2,0.049
	C5.693,91.227,5.539,92.588,5.373,93.865z M2.628,88.586c-1.1,0-2.204,0.021-3.305,0.056c-0.244-2.746-0.433-5.73-0.567-8.866
	C0.02,79.74,1.309,79.72,2.628,79.72c1.318,0,2.609,0.021,3.873,0.056c-0.134,3.136-0.323,6.12-0.566,8.866
	C4.832,88.604,3.728,88.586,2.628,88.586z M6.471,94.01c0.171-1.311,0.325-2.707,0.465-4.172c1.966,0.085,3.833,0.223,5.596,0.407
	c-0.344,1.222-0.718,2.395-1.124,3.505c-0.476,1.299-0.987,2.486-1.526,3.557c-1.242-0.129-2.531-0.22-3.855-0.283
	C6.178,96.124,6.325,95.126,6.471,94.01z M10.516,98.533c0.023,0.004,0.05,0.006,0.073,0.01c0.939,0.105,1.843,0.232,2.708,0.377
	c0.253,0.043,0.498,0.088,0.74,0.131c-2.175,1.992-4.579,3.438-7.136,4.204C8.207,102.154,9.419,100.55,10.516,98.533z
	 M11.438,102.39c1.369-0.844,2.677-1.878,3.905-3.082c0.588,0.125,1.148,0.261,1.682,0.405
	C15.257,100.809,13.389,101.71,11.438,102.39z M16.286,98.332c1.748-1.899,3.324-4.153,4.681-6.69
	c1.451,0.349,2.746,0.736,3.867,1.146c-1.925,2.359-4.123,4.41-6.542,6.089c-0.371-0.115-0.753-0.228-1.157-0.334
	C16.859,98.47,16.573,98.401,16.286,98.332z M17.991,100.406c0.141-0.089,0.275-0.185,0.416-0.277
	c0.028,0.012,0.056,0.02,0.08,0.028C18.323,100.239,18.159,100.324,17.991,100.406z M19.876,99.427
	c-0.098-0.037-0.199-0.074-0.301-0.113c2.338-1.711,4.469-3.765,6.336-6.103c0.527,0.224,0.998,0.455,1.422,0.688
	C25.108,96.049,22.602,97.911,19.876,99.427z M30.423,81.933c-0.398-0.119-0.806-0.236-1.221-0.353
	c-1.31-0.354-2.712-0.683-4.183-0.983c0.649-2.844,1.074-5.848,1.243-8.962c0.301,0.056,0.603,0.109,0.895,0.166
	c2.096,0.414,4.012,0.877,5.752,1.373c-0.35,3.11-1.055,6.093-2.061,8.895C30.704,82.022,30.568,81.978,30.423,81.933z
	 M34.764,83.546c-0.868-0.4-1.825-0.78-2.866-1.136c1.009-2.814,1.723-5.802,2.089-8.916c1.314,0.407,2.51,0.836,3.58,1.279
	C37.016,77.854,36.062,80.795,34.764,83.546z M44.268,69.171c-1.033-0.19-2.092-0.043-3.11,0.441
	c-1.106,0.525-1.91,1.804-2.399,3.816c-0.605-1.458-1.49-2.558-2.648-3.282c-1.235-0.771-2.694-1.242-4.354-1.398
	c0.956-0.684,1.582-1.497,1.87-2.443c0.406-1.323,0.096-2.85-0.923-4.551c1.591,0.218,3.075-0.527,4.38-2.197
	c0.925-1.181,1.55-2.452,1.868-3.794c1.209,2.904,2.447,4.862,3.69,5.833c0.415,0.327,0.836,0.577,1.253,0.755
	c-0.668,1.058-0.892,2.276-0.663,3.628C43.429,67.169,43.776,68.236,44.268,69.171z"/>
</svg>
