<?xml version="1.0" encoding="utf-8"?>
<!-- Generator: Adobe Illustrator 14.0.0, SVG Export Plug-In . SVG Version: 6.00 Build 43363)  -->
<!DOCTYPE svg PUBLIC "-//W3C//DTD SVG 1.1//EN" "http://www.w3.org/Graphics/SVG/1.1/DTD/svg11.dtd">
<svg version="1.1" id="Layer_1" xmlns="http://www.w3.org/2000/svg" xmlns:xlink="http://www.w3.org/1999/xlink" x="0px" y="0px"
	 width="90px" height="90px" viewBox="0 38 90 90" enable-background="new 0 38 90 90" xml:space="preserve">
<path fill="#FFFFFF" d="M67.02,60.646c-1.538-1.229-3.28-2.357-4.92-3.382c-0.307-0.205-0.614-0.103-0.818,0.206
	c-0.206,0.307-0.104,0.615,0.204,0.819c1.435,0.82,2.869,1.743,4.201,2.767l0,0c-0.307,0.102-0.409,0.512-0.205,0.819
	c0.104,0.206,0.308,0.308,0.513,0.308c0.103,0,0.204,0,0.308-0.103c0.308-0.206,0.614-0.308,0.819-0.513
	c0.205-0.102,0.205-0.308,0.308-0.41C67.326,60.954,67.224,60.75,67.02,60.646z"/>
<path fill="#FFFFFF" d="M58.514,96.41c-0.308,0-0.513,0.309-0.513,0.615s0.307,0.512,0.615,0.512l0,0
	c3.483-0.307,6.661-0.717,9.53-1.229c0.308,0,0.409-0.309,0.512-0.514c0.103-1.945,0.205-4.098,0.205-6.354
	c0-1.127-0.103-2.254-0.205-3.484c0-0.307-0.308-0.512-0.614-0.512c-0.308,0-0.513,0.309-0.513,0.615
	c0.102,1.127,0.205,2.254,0.205,3.279c0,2.049,0,4.1-0.104,5.842C64.764,95.795,61.793,96.205,58.514,96.41z"/>
<path fill="#FFFFFF" d="M64.252,75.3c1.229,2.87,2.151,5.636,2.664,8.301c-2.562,0.512-5.431,0.819-8.505,1.127
	c-0.308,0-0.513,0.307-0.513,0.614s0.308,0.513,0.615,0.513l0,0c3.381-0.307,6.455-0.717,9.223-1.23
	c0.308-0.102,0.513-0.307,0.41-0.614c-0.514-2.869-1.537-5.944-2.869-9.12c-0.104-0.308-0.514-0.41-0.718-0.308
	C64.252,74.686,64.15,74.993,64.252,75.3z"/>
<path fill="#FFFFFF" d="M65.071,63.516c-0.204,0.205-0.204,0.615,0,0.82c1.948,2.049,3.587,4.201,5.021,6.558
	c-1.332,0.512-2.767,0.922-4.304,1.333c-0.308,0.102-0.512,0.41-0.409,0.717c0.102,0.307,0.307,0.41,0.512,0.41h0.103
	c1.844-0.512,3.587-1.025,5.124-1.64c0.102-0.103,0.307-0.205,0.307-0.308c0-0.205,0-0.307-0.102-0.512
	c-1.538-2.562-3.485-5.021-5.534-7.275C65.687,63.311,65.38,63.311,65.071,63.516z"/>
<path fill="#FFFFFF" d="M68.761,106.76h0.103c2.255-0.512,4.407-1.229,6.354-1.947c0.205-0.102,0.307-0.205,0.307-0.307
	c0.923-2.973,1.538-5.943,1.744-8.916c0-0.307-0.206-0.613-0.514-0.613s-0.614,0.205-0.614,0.512
	c-0.206,2.869-0.82,5.635-1.641,8.402c-1.741,0.615-3.688,1.229-5.841,1.742c-0.308,0.104-0.512,0.41-0.409,0.717
	C68.249,106.555,68.556,106.76,68.761,106.76z"/>
<path fill="#FFFFFF" d="M68.761,61.979c-0.205-0.205-0.614-0.205-0.819,0.103c-0.205,0.205-0.205,0.614,0.103,0.82
	c2.254,1.844,4.304,3.894,5.943,6.046c-0.41,0.307-0.923,0.615-1.435,0.922c-0.308,0.103-0.41,0.513-0.205,0.82
	c0.103,0.205,0.307,0.308,0.512,0.308c0.103,0,0.205,0,0.308-0.103c0.718-0.41,1.436-0.82,2.05-1.332
	c0.205-0.205,0.307-0.512,0.103-0.82C73.372,66.283,71.22,64.028,68.761,61.979z"/>
<path fill="#FFFFFF" d="M80.648,79.194c0.205-0.205,0.205-0.41,0.102-0.615c-1.127-2.972-2.562-5.738-4.405-8.3
	c-0.205-0.308-0.513-0.308-0.821-0.103c-0.307,0.205-0.307,0.512-0.102,0.82c1.64,2.357,3.074,5.021,4.099,7.686
	c-0.717,0.615-1.536,1.229-2.459,1.742c-0.308,0.103-0.41,0.512-0.205,0.82c0.102,0.205,0.307,0.308,0.513,0.308
	c0.103,0,0.205,0,0.307-0.103C78.906,80.629,79.827,79.912,80.648,79.194z"/>
<path fill="#FFFFFF" d="M71.732,72.431c-0.308,0.103-0.409,0.513-0.205,0.82c1.436,2.562,2.562,5.431,3.383,8.301
	c-1.538,0.614-3.383,1.229-5.432,1.742c-0.308,0.103-0.513,0.41-0.411,0.717c0.104,0.308,0.309,0.41,0.514,0.41h0.103
	c2.254-0.513,4.304-1.23,6.045-1.947c0.309-0.103,0.411-0.41,0.309-0.717c-0.82-3.177-2.05-6.148-3.587-9.018
	C72.348,72.329,72.041,72.227,71.732,72.431z"/>
<path fill="#FFFFFF" d="M54.927,116.188c0,0.309,0.308,0.514,0.615,0.514l0,0c2.766-0.205,5.328-0.514,7.787-0.924
	c0.205,0,0.308-0.102,0.41-0.307c1.229-1.947,2.152-4.1,2.87-6.559c0.103-0.307-0.104-0.615-0.411-0.717
	c-0.307-0.102-0.613,0.102-0.717,0.41c-0.718,2.254-1.536,4.201-2.664,6.045c-2.254,0.41-4.714,0.615-7.379,0.82
	C55.132,115.572,54.927,115.879,54.927,116.188z"/>
<path fill="#FFFFFF" d="M67.121,106.76c0.615-2.561,1.025-5.533,1.333-8.914c0-0.309-0.205-0.615-0.513-0.615
	c-0.309,0-0.615,0.205-0.615,0.512c-0.205,3.178-0.614,5.943-1.229,8.402c-2.664,0.514-5.637,0.924-8.607,1.23
	c-0.308,0-0.513,0.307-0.513,0.613c0,0.309,0.308,0.514,0.614,0.514c0,0,0,0,0.104,0c3.176-0.307,6.251-0.717,9.12-1.332
	C66.916,107.17,67.121,106.965,67.121,106.76z"/>
<path fill="#FFFFFF" d="M45.909,108.912c0.615,0,1.127,0,1.742,0c2.664,0,5.328-0.102,7.891-0.307c0.308,0,0.513-0.205,0.513-0.512
	c0.409-2.666,0.818-5.639,1.023-9.02c0-0.307-0.205-0.615-0.512-0.615s-0.614,0.205-0.614,0.514
	c-0.206,3.176-0.514,5.943-0.923,8.504c-2.356,0.205-4.816,0.205-7.378,0.205c-0.615,0-1.127,0-1.742,0l0,0
	c-0.308,0-0.616,0.205-0.616,0.514C45.293,108.707,45.602,108.912,45.909,108.912z"/>
<path fill="#FFFFFF" d="M46.318,85.139h-0.409l0,0c-0.308,0-0.616,0.204-0.616,0.512c0,0.307,0.206,0.615,0.513,0.615h0.41
	c0.41,0,0.819,0,1.331,0c3.075,0,6.047-0.104,8.916-0.309c0.308,0,0.513-0.307,0.513-0.614c-0.205-3.074-0.615-6.148-1.127-9.223
	c-0.104-0.307-0.308-0.512-0.615-0.41s-0.513,0.307-0.409,0.615c0.512,2.767,0.921,5.636,1.127,8.505
	c-2.665,0.205-5.431,0.205-8.301,0.205C47.241,85.24,46.729,85.139,46.318,85.139z"/>
<path fill="#FFFFFF" d="M54.312,57.47c-0.204-0.206-0.512-0.308-0.819-0.103c-0.205,0.205-0.307,0.512-0.102,0.82
	c1.435,1.742,2.766,3.381,3.996,5.123c-1.025,0.103-2.05,0.308-3.178,0.41c-0.307,0-0.512,0.307-0.512,0.615
	c0,0.307,0.307,0.512,0.614,0.512l0,0c1.435-0.103,2.87-0.308,4.1-0.512c0.205,0,0.308-0.205,0.41-0.308
	c0.103-0.205,0.103-0.409-0.103-0.512C57.489,61.467,55.952,59.52,54.312,57.47z"/>
<path fill="#FFFFFF" d="M45.499,57.982c-0.308,0-0.615,0.206-0.615,0.513c-0.103,1.64-0.308,3.484-0.41,5.533
	c-1.64,0-3.074-0.102-4.509-0.307c-0.307,0-0.614,0.205-0.614,0.513c0,0.307,0.205,0.615,0.512,0.615
	c1.64,0.205,3.279,0.307,5.124,0.307l0,0c0.307,0,0.513-0.205,0.615-0.512c0.205-2.254,0.308-4.202,0.512-6.046
	C46.113,58.29,45.807,57.982,45.499,57.982z"/>
<path fill="#FFFFFF" d="M45.704,97.947h0.308c0.513,0,1.127,0,1.64,0c3.074,0,6.046-0.102,8.915-0.307
	c0.307,0,0.512-0.205,0.512-0.514c0.104-2.15,0.104-4.508,0.104-6.865c0-0.82,0-1.639-0.104-2.768c0-0.307-0.307-0.613-0.614-0.512
	c-0.308,0-0.512,0.309-0.512,0.615c0,1.127,0.103,1.947,0.103,2.768c0,2.254,0,4.303-0.103,6.354
	c-2.665,0.203-5.534,0.203-8.301,0.203c-0.615,0-1.127,0-1.64,0h-0.308l0,0c-0.308,0-0.615,0.205-0.615,0.514
	C45.089,97.742,45.396,97.947,45.704,97.947z"/>
<path fill="#FFFFFF" d="M69.889,94.771c-0.308,0.102-0.513,0.41-0.41,0.717s0.307,0.41,0.512,0.41h0.103
	c2.665-0.615,5.022-1.332,6.969-2.152c0.206-0.102,0.308-0.307,0.308-0.512c0.103-3.178-0.206-6.457-0.923-9.736
	c-0.102-0.307-0.409-0.512-0.718-0.41c-0.307,0.103-0.512,0.41-0.409,0.717c0.614,3.075,0.922,6.046,0.922,9.12
	C74.499,93.645,72.348,94.258,69.889,94.771z"/>
<path fill="#FFFFFF" d="M44.782,76.53c0-0.307-0.206-0.615-0.513-0.615c-0.308,0-0.615,0.205-0.615,0.513
	c-0.205,2.972-0.307,5.841-0.41,8.607c-3.382-0.102-6.456-0.307-9.325-0.614c-0.307,0-0.614,0.204-0.614,0.513
	c0,0.307,0.205,0.615,0.512,0.615c3.075,0.307,6.354,0.512,9.94,0.613l0,0c0.308,0,0.512-0.205,0.615-0.512
	C44.576,82.781,44.679,79.707,44.782,76.53z"/>
<path fill="#FFFFFF" d="M38.019,57.162c0.205-0.205,0.205-0.615,0-0.819c-0.206-0.205-0.615-0.205-0.82,0
	c-1.947,1.742-3.792,3.689-5.534,5.739c-0.615-0.206-1.229-0.513-1.742-0.82c-0.308-0.103-0.615,0-0.82,0.206
	c-0.102,0.307,0,0.615,0.206,0.819c0.615,0.307,1.435,0.717,2.254,1.024c0.102,0,0.102,0,0.205,0c0.205,0,0.308-0.102,0.41-0.205
	C34.124,60.954,35.969,59.007,38.019,57.162z"/>
<path fill="#FFFFFF" d="M37.198,65.36c-0.307-0.103-0.615,0-0.717,0.308c-1.024,2.459-1.947,4.918-2.767,7.378
	c-2.05-0.308-3.997-0.717-5.738-1.127c-0.308-0.103-0.615,0.102-0.717,0.41c-0.103,0.308,0.102,0.615,0.409,0.717
	c1.845,0.513,3.997,0.922,6.354,1.23h0.102c0.205,0,0.513-0.205,0.513-0.41c0.717-2.562,1.742-5.226,2.869-7.788
	C37.608,65.873,37.506,65.565,37.198,65.36z"/>
<path fill="#FFFFFF" d="M21.93,69.562c-0.308-0.103-0.615,0-0.82,0.205c-0.103,0.307,0,0.615,0.205,0.819
	c1.23,0.717,2.767,1.333,4.406,1.845c0.103,0,0.103,0,0.205,0c0.205,0,0.41-0.103,0.512-0.307c1.332-2.562,2.87-5.124,4.611-7.481
	c0.205-0.205,0.103-0.615-0.103-0.82c-0.205-0.205-0.615-0.103-0.819,0.103c-1.743,2.254-3.279,4.714-4.509,7.276
	C24.287,70.689,22.955,70.177,21.93,69.562z"/>
<path fill="#FFFFFF" d="M33.714,75.096c-0.308-0.103-0.615,0.102-0.717,0.41c-0.717,2.767-1.23,5.738-1.537,8.71
	c-2.665-0.41-5.124-0.82-7.276-1.435c-0.307-0.102-0.615,0.103-0.717,0.41s0.103,0.615,0.41,0.717
	c2.356,0.615,5.021,1.127,7.993,1.537c0,0,0,0,0.103,0s0.205,0,0.308-0.103c0.102-0.103,0.205-0.204,0.205-0.409
	c0.308-3.075,0.82-6.149,1.64-9.121C34.227,75.506,34.022,75.198,33.714,75.096z"/>
<path fill="#FFFFFF" d="M56.464,74.276c0,0.307,0.308,0.513,0.614,0.513c0,0,0,0,0.104,0c2.561-0.206,4.918-0.513,6.969-1.025
	c0.204,0,0.307-0.102,0.409-0.307s0.103-0.308,0-0.512c-1.23-2.562-2.665-5.124-4.406-7.686c-0.205-0.307-0.513-0.307-0.82-0.205
	c-0.308,0.205-0.308,0.512-0.204,0.819c1.536,2.255,2.869,4.612,3.996,6.866c-1.844,0.308-3.996,0.615-6.148,0.82
	C56.669,73.661,56.361,73.968,56.464,74.276z"/>
<path fill="#FFFFFF" d="M82.288,92.209c-0.309,0-0.615,0.205-0.615,0.512c0,0.309-0.307,4.715-1.024,6.969l0,0l0,0
	c-0.104,0.514-0.205,0.922-0.41,1.332c-0.513,0.307-1.536,0.922-3.177,1.639c-0.308,0.104-0.41,0.514-0.308,0.719
	s0.308,0.307,0.514,0.307c0.102,0,0.204,0,0.204-0.102c1.844-0.82,2.972-1.537,3.483-1.846c0.103-0.102,0.205-0.205,0.205-0.307
	c0.206-0.512,0.308-1.025,0.411-1.641c0.613-2.355,1.023-6.762,1.023-7.172C82.902,92.414,82.595,92.209,82.288,92.209z"/>
<path fill="#FFFFFF" d="M33.612,97.23c3.074,0.307,6.456,0.512,10.042,0.615l0,0c0.103,0,0.307-0.104,0.41-0.205
	c0.103-0.104,0.205-0.205,0.205-0.41c0-2.973,0.103-6.252,0.103-9.633c0-0.307-0.205-0.615-0.513-0.615
	c-0.307,0-0.615,0.205-0.615,0.512c-0.103,3.178-0.103,6.252-0.103,9.121c-3.279-0.102-6.456-0.307-9.325-0.615
	c-0.307,0-0.615,0.205-0.615,0.514C33.099,96.922,33.305,97.23,33.612,97.23z"/>
<path fill="#FFFFFF" d="M16.089,80.014c-0.205,0.308-0.103,0.615,0.205,0.82c1.538,0.922,3.484,1.742,5.739,2.459
	c0.103,0,0.103,0,0.205,0c0.102,0,0.205,0,0.308-0.103c0.102-0.103,0.205-0.205,0.307-0.41c0.615-3.074,1.639-6.046,2.869-8.915
	c0.103-0.307,0-0.615-0.307-0.717c-0.308-0.103-0.615,0-0.717,0.308c-1.23,2.767-2.152,5.636-2.767,8.505
	c-1.947-0.615-3.587-1.333-4.919-2.152C16.601,79.707,16.191,79.81,16.089,80.014z"/>
<path fill="#FFFFFF" d="M44.884,65.975c-0.308,0-0.615,0.205-0.615,0.513c-0.205,2.459-0.308,5.021-0.512,7.48
	c-2.767-0.103-5.329-0.307-7.686-0.512c-0.308,0-0.615,0.205-0.615,0.512c0,0.308,0.205,0.615,0.512,0.615
	c2.562,0.308,5.329,0.513,8.3,0.615l0,0c0.307,0,0.513-0.205,0.615-0.512c0.102-2.665,0.307-5.329,0.512-7.993
	C45.499,66.283,45.191,66.078,44.884,65.975z"/>
<path fill="#FFFFFF" d="M36.174,116.393c2.562,0.309,5.431,0.41,8.3,0.512l0,0c0.205,0,0.308-0.102,0.41-0.203
	c0.102-0.104,0.205-0.309,0.102-0.41c-0.205-1.846-0.41-3.895-0.512-5.945c0-0.307-0.307-0.512-0.615-0.512
	c-0.307,0-0.512,0.307-0.512,0.615c0.103,1.947,0.307,3.689,0.41,5.43c-2.665-0.102-5.124-0.203-7.583-0.512
	c-0.308,0-0.615,0.205-0.615,0.512C35.661,116.084,35.866,116.393,36.174,116.393z"/>
<path fill="#FFFFFF" d="M22.955,95.385c2.562,0.719,5.533,1.23,8.608,1.641c0,0,0,0,0.102,0c0.103,0,0.308,0,0.41-0.104
	c0.103-0.102,0.205-0.307,0.205-0.408c0-2.152,0-4.51,0-7.072c0-0.717,0-1.537,0.102-2.561c0-0.309-0.205-0.615-0.512-0.615
	c-0.307,0-0.615,0.205-0.615,0.512c-0.102,1.025-0.102,1.846-0.102,2.562c0,2.254,0,4.406,0,6.455
	c-2.869-0.41-5.534-0.922-7.89-1.434c-0.308-0.104-0.615,0.102-0.717,0.41C22.442,95.078,22.647,95.385,22.955,95.385z"/>
<path fill="#FFFFFF" d="M46.831,74.071h-0.409c-0.309,0-0.615,0.205-0.615,0.512c0,0.308,0.205,0.615,0.615,0.615h0.409
	c0.308,0,0.513,0,0.82,0c2.562,0,5.021-0.102,7.378-0.205c0.205,0,0.308-0.103,0.409-0.205c0.104-0.103,0.104-0.308,0.104-0.41
	c-0.615-2.665-1.23-5.431-2.05-7.993c-0.102-0.307-0.41-0.513-0.718-0.41c-0.307,0.103-0.512,0.41-0.409,0.717
	c0.717,2.357,1.435,4.817,1.946,7.276c-2.151,0.103-4.406,0.205-6.66,0.205C47.344,74.071,47.036,74.071,46.831,74.071z"/>
<path fill="#FFFFFF" d="M24.082,106.248c2.562,0.717,5.329,1.229,8.198,1.74h0.102c0.103,0,0.308-0.102,0.41-0.203
	c0.103-0.104,0.205-0.309,0.205-0.514c-0.308-2.561-0.513-5.43-0.615-8.812c0-0.307-0.307-0.512-0.615-0.512
	c-0.307,0-0.513,0.307-0.513,0.615c0.103,3.074,0.308,5.738,0.513,8.096c-2.562-0.41-5.021-0.922-7.378-1.539
	c-0.308-0.102-0.615,0.104-0.717,0.412C23.569,105.838,23.774,106.145,24.082,106.248z"/>
<path fill="#FFFFFF" d="M26.951,114.855c2.152,0.512,4.509,0.922,6.968,1.332c0,0,0,0,0.103,0c0.205,0,0.307-0.104,0.41-0.205
	c0.102-0.104,0.205-0.307,0.102-0.512c-0.615-1.844-1.024-3.791-1.435-6.047c0-0.307-0.307-0.512-0.615-0.512
	c-0.307,0-0.512,0.307-0.512,0.615c0.308,1.947,0.717,3.791,1.127,5.432c-2.152-0.309-4.201-0.719-6.046-1.127
	c-0.307-0.104-0.615,0.102-0.717,0.408C26.438,114.445,26.644,114.752,26.951,114.855z"/>
<path fill="#FFFFFF" d="M43.859,108.912c0.103,0,0.308-0.102,0.41-0.205c0.103-0.102,0.205-0.307,0.205-0.41
	c-0.103-2.766-0.205-5.738-0.205-8.916c0-0.307-0.308-0.613-0.615-0.613l0,0c-0.307,0-0.615,0.307-0.615,0.613
	c0,2.973,0.102,5.738,0.205,8.404c-3.074-0.104-6.046-0.309-8.812-0.717c-0.308,0-0.615,0.203-0.615,0.512
	c0,0.307,0.206,0.615,0.513,0.615C37.403,108.605,40.58,108.811,43.859,108.912L43.859,108.912z"/>
<path fill="#FFFFFF" d="M47.651,57.162L47.651,57.162c0.513,0,0.922,0,1.436,0c0.204,0,0.409-0.102,0.409-0.307
	c0.103-0.205,0.103-0.41,0-0.512c-0.409-0.82-0.82-1.64-1.127-2.357c-0.104-0.308-0.513-0.41-0.718-0.205
	c-0.308,0.103-0.41,0.512-0.205,0.717c0.205,0.512,0.513,1.025,0.819,1.538c-0.204,0-0.307,0-0.512,0
	c-0.308,0-0.615,0.307-0.615,0.614C47.139,56.958,47.344,57.162,47.651,57.162z"/>
<path fill="#FFFFFF" d="M26.233,115.777c-0.102-0.307-0.512-0.41-0.717-0.205c-0.308,0.104-0.41,0.512-0.205,0.719
	c0.512,0.922,1.024,1.844,1.537,2.664c0.102,0.205,0.307,0.205,0.512,0.205c0.103,0,0.205,0,0.307-0.104
	c0.308-0.203,0.308-0.512,0.205-0.82C27.156,117.52,26.644,116.598,26.233,115.777z"/>
<path fill="#FFFFFF" d="M23.057,107.17c-0.102-0.307-0.41-0.512-0.717-0.41c-0.307,0.104-0.512,0.41-0.41,0.717
	c0.41,1.846,1.025,3.588,1.64,5.227c-1.537-0.512-2.665-1.023-3.279-1.332c-0.307-0.102-0.615,0-0.717,0.309
	c-0.103,0.307,0,0.613,0.308,0.717c0.82,0.41,2.357,1.127,4.611,1.742c0.103,0,0.103,0,0.206,0c0.205,0,0.307-0.104,0.41-0.205
	c0.102-0.205,0.205-0.41,0.102-0.615C24.287,111.475,23.569,109.322,23.057,107.17z"/>
<path fill="#FFFFFF" d="M35.354,117.52c-0.103-0.307-0.41-0.41-0.717-0.307c-0.308,0.102-0.41,0.41-0.308,0.717
	c0.308,0.818,0.717,1.641,1.127,2.459c-1.538-0.307-3.075-0.717-4.611-1.127c-0.308-0.102-0.615,0.104-0.717,0.41
	c-0.103,0.307,0.102,0.615,0.409,0.717c1.947,0.512,3.997,1.025,5.944,1.436h0.103c0.205,0,0.308-0.102,0.41-0.205
	c0.103-0.205,0.103-0.41,0-0.615C36.378,119.773,35.866,118.646,35.354,117.52z"/>
<path fill="#FFFFFF" d="M13.731,93.234c0-0.309-0.307-0.514-0.614-0.514l0,0c-0.308,0-0.615,0.309-0.513,0.615
	c0,2.562,0.205,5.123,0.615,7.48c-0.103,0-0.308,0.104-0.41,0.205c-0.205,0.307-0.103,0.615,0.205,0.82
	c0.103,0.102,0.41,0.205,0.717,0.408c0.103,0.104,0.206,0.104,0.308,0.104c0.103,0,0.205,0,0.307-0.104
	c0.206-0.102,0.308-0.307,0.206-0.613C13.937,98.869,13.731,96.104,13.731,93.234z"/>
<path fill="#FFFFFF" d="M22.032,105.531c0.103,0,0.307,0,0.41-0.104c0.103-0.104,0.205-0.309,0.205-0.512
	c-0.512-2.666-0.82-5.535-0.82-8.506c0-0.307-0.307-0.512-0.615-0.512S20.7,96.205,20.7,96.514c0.103,2.664,0.307,5.328,0.717,7.787
	c-1.742-0.615-3.382-1.229-4.714-1.846c-0.308-0.102-0.615,0-0.717,0.309s0,0.615,0.307,0.717c1.742,0.82,3.689,1.537,5.841,2.152
	C21.93,105.531,21.93,105.531,22.032,105.531z"/>
<path fill="#FFFFFF" d="M44.679,117.828c-0.308,0-0.512,0.307-0.512,0.613c0.102,1.129,0.307,2.256,0.512,3.281
	c-1.742-0.104-3.587-0.309-5.534-0.617c-0.307,0-0.615,0.205-0.615,0.514c-0.103,0.307,0.206,0.615,0.513,0.615
	c2.254,0.408,4.407,0.615,6.354,0.717l0,0c0.205,0,0.308-0.102,0.41-0.205s0.205-0.307,0.103-0.512
	c-0.205-1.23-0.41-2.562-0.616-3.998C45.293,117.93,44.986,117.725,44.679,117.828z"/>
<path fill="#FFFFFF" d="M21.11,94.873c0.103,0,0.205,0,0.308-0.102c0.103-0.104,0.205-0.309,0.205-0.41
	c0-2.049,0.103-3.996,0.308-6.047c0.103-1.023,0.205-2.152,0.41-3.484c0-0.307-0.205-0.614-0.512-0.614
	c-0.307-0.103-0.615,0.205-0.615,0.513c-0.205,1.332-0.308,2.459-0.41,3.484c-0.103,1.844-0.205,3.586-0.308,5.432
	c-1.946-0.615-3.688-1.332-5.123-2.051c-0.308-0.102-0.615,0-0.717,0.205c-0.103,0.307,0,0.615,0.205,0.717
	c1.742,0.924,3.792,1.641,6.046,2.357C21.007,94.873,21.11,94.873,21.11,94.873z"/>
<path fill="#FFFFFF" d="M80.75,80.322c-0.307,0.103-0.512,0.41-0.409,0.717c0.409,1.64,1.23,4.918,1.332,9.018
	c-0.718,0.615-1.742,1.23-2.971,1.846c-0.31,0.102-0.411,0.512-0.206,0.717c0.102,0.205,0.308,0.307,0.513,0.307
	c0.102,0,0.205,0,0.205-0.102c1.331-0.719,2.562-1.436,3.483-2.152c0.104-0.102,0.205-0.307,0.205-0.41
	c-0.102-4.305-0.923-7.891-1.331-9.633C81.366,80.424,81.058,80.219,80.75,80.322z"/>
<path fill="#FFFFFF" d="M79.931,103.891c-0.308-0.102-0.615,0-0.717,0.205c-1.229,2.459-2.768,4.816-4.509,6.969
	c-0.206,0.102-0.513,0.307-1.128,0.615c-0.307,0.102-0.41,0.512-0.307,0.717c0.102,0.205,0.307,0.307,0.512,0.307
	c0.103,0,0.205,0,0.205-0.102c0.718-0.309,1.128-0.615,1.229-0.719l0.103-0.102c1.844-2.152,3.383-4.611,4.714-7.174
	C80.341,104.402,80.238,103.992,79.931,103.891z"/>
<path fill="#FFFFFF" d="M76.754,113.42c0.103-0.102,0.204-0.205,0.308-0.41c2.049-2.459,3.792-5.225,5.123-8.094
	c0,0,0.104-0.104,0.104-0.205l0.102-0.205c0.308-0.615,0.616-1.332,0.923-2.051c0,0,0-0.102,0.102-0.102
	c1.64-4.1,2.461-8.301,2.665-12.707c0-0.102,0-0.307,0-0.41V88.93c0-0.205,0-0.512,0-0.717c0-3.997-0.614-7.891-1.844-11.683v-0.103
	c-1.128-3.586-2.869-7.071-5.021-10.248c0-0.102-0.104-0.102-0.104-0.205c-2.254-3.279-5.021-6.148-8.197-8.607l0,0c0,0,0,0-0.103,0
	l0,0c-5.943-4.611-13.015-7.276-20.495-7.891V38.615C50.213,38.205,50.008,38,49.7,38h-5.021c-0.308,0-0.615,0.205-0.615,0.615
	V49.58c-3.485,0.307-6.866,1.024-10.042,2.152h-0.103c-3.382,1.229-6.558,2.869-9.428,5.021c-0.102,0-0.102,0.102-0.205,0.205
	c-3.382,2.459-6.354,5.534-8.813,8.915c-0.102,0.103-0.205,0.308-0.307,0.41C10.658,72.738,8.3,80.424,8.3,88.314
	c0,4.92,0.923,9.633,2.665,14.244c0,0,0,0,0,0.102l0,0c1.538,3.793,3.587,7.379,6.251,10.453c0.103,0.102,0.103,0.102,0.205,0.205
	c0.615,0.717,1.332,1.537,2.049,2.254c0.205,0.307,0.41,0.41,0.41,0.41c0.103,0.102,0.103,0.102,0.103,0.102
	c1.844,1.846,3.894,3.383,6.046,4.816c0.103,0.104,0.103,0.104,0.205,0.104c6.251,3.996,13.527,6.148,21.008,6.148
	c0.615,0,1.229,0,1.846,0c0.307,0.104,0.512,0,0.818-0.102c1.947-0.104,3.895-0.412,5.841-0.82h0.104
	c3.176-0.719,6.148-1.844,9.018-3.279h0.102l0,0c1.025-0.512,2.051-1.127,2.973-1.742c0.205-0.104,0.308-0.205,0.409-0.309
	C71.527,118.748,74.397,116.291,76.754,113.42z M67.736,119.877C67.736,119.877,67.633,119.979,67.736,119.877
	c-0.104,0.102-0.205,0.102-0.205,0.205c0,0-0.103,0-0.103,0.102c-0.923,0.615-1.947,1.23-2.972,1.742l0,0l0,0
	c-2.767,1.436-5.738,2.562-8.813,3.178l0.103,0.512l-0.308-0.512c-1.844,0.41-3.791,0.717-5.738,0.818c-0.102,0-0.102,0-0.204,0
	s-0.205,0-0.308,0c-0.102,0-0.102,0-0.206,0c-0.613,0-1.229,0-1.844,0c-7.276,0-14.244-2.049-20.393-6.045h-0.103
	c0,0,0,0-0.102-0.104c-2.152-1.434-4.1-2.971-5.944-4.713l0,0c0,0,0,0-0.103,0c-0.102-0.102-0.205-0.205-0.307-0.41
	c-0.717-0.717-1.332-1.436-1.947-2.152l-0.103-0.102c0,0,0,0,0-0.104c-2.562-3.074-4.611-6.455-6.046-10.246l0,0l0,0
	c-1.743-4.406-2.665-9.018-2.665-13.834c0-7.686,2.357-15.064,6.661-21.417c0,0,0-0.103,0.102-0.103l0.103-0.103l0.103-0.102
	c2.357-3.382,5.226-6.251,8.608-8.71c0,0,0,0,0.103-0.103c0,0,0,0,0.102,0h0.103c2.869-2.049,5.943-3.689,9.222-4.918l0,0
	c0,0,0,0,0.103,0c3.279-1.23,6.763-1.947,10.35-2.152c0.307,0,0.513-0.307,0.513-0.615V39.127h3.895v10.965
	c0,0.307,0.205,0.512,0.512,0.615c7.481,0.512,14.552,3.177,20.495,7.686l0,0l0,0c3.075,2.357,5.739,5.124,7.992,8.3v0.103
	c0,0,0,0,0,0.102c2.152,3.074,3.792,6.456,4.92,9.94c0,0,0,0,0,0.103c1.128,3.688,1.741,7.48,1.741,11.374c0,0.205,0,0.41,0,0.615
	v0.307v0.104c0,0.102,0,0.102,0,0.102v0.104c-0.102,4.303-1.023,8.402-2.562,12.398c0,0,0,0,0,0.104
	c-0.308,0.717-0.614,1.332-0.921,2.049l-0.104,0.205l-0.102,0.102c-1.333,2.869-3.075,5.432-5.021,7.891c0,0,0,0.104-0.104,0.104
	c0,0.102-0.102,0.102-0.102,0.102l-0.103,0.104C73.577,115.471,70.811,117.93,67.736,119.877z"/>
<path fill="#FFFFFF" d="M13.117,91.389c0.103,0,0.205,0,0.307-0.102c0.205-0.104,0.307-0.309,0.307-0.514
	c0.103-2.459,0.308-5.02,0.717-7.685c0.103-0.512,0.206-1.127,0.308-1.844c0.103-0.308-0.102-0.615-0.41-0.717
	c-0.307-0.103-0.615,0.102-0.717,0.41c-0.205,0.717-0.307,1.333-0.409,1.947c-0.41,2.356-0.615,4.61-0.717,6.763
	c-0.718-0.512-1.127-0.922-1.333-1.127s-0.615-0.205-0.82,0c-0.205,0.205-0.205,0.615,0,0.82c0.308,0.307,1.025,1.025,2.357,1.844
	C12.912,91.389,13.014,91.389,13.117,91.389z"/>
<path fill="#FFFFFF" d="M53.287,116.803c0.205,0,0.41-0.102,0.513-0.41c0.718-1.844,1.332-3.895,1.844-6.148
	c0.103-0.307-0.102-0.615-0.409-0.717c-0.308-0.104-0.614,0.102-0.717,0.41c-0.41,2.049-1.025,3.895-1.641,5.635
	c-1.742,0.104-3.483,0.104-5.226,0.104c-0.308,0-0.615,0-0.82,0h-0.307c-0.308,0-0.615,0.203-0.615,0.615
	c0,0.307,0.204,0.613,0.615,0.613h0.307c0.308,0,0.615,0,0.82,0C49.599,117.008,51.442,116.904,53.287,116.803z"/>
<path fill="#FFFFFF" d="M52.673,117.828c-0.308-0.104-0.615,0-0.717,0.307c-0.514,1.127-1.23,2.357-2.051,3.689
	c-0.818,0-1.64,0-2.459,0.102c-0.308,0-0.615,0.309-0.615,0.615c0,0.309,0.205,0.615,0.615,0.615l0,0c0.923,0,1.845,0,2.767-0.104
	c0.205,0,0.41-0.102,0.513-0.307c0.922-1.537,1.64-2.768,2.254-4.1C53.082,118.236,52.979,117.93,52.673,117.828z"/>
<path fill="#FFFFFF" d="M68.556,115.676c-1.024,1.434-1.844,2.355-2.152,2.664c-0.922,0.615-1.946,1.127-2.869,1.639
	c-0.307,0.104-1.229,0.309-2.356,0.514c-0.308,0.102-0.513,0.307-0.41,0.613c0,0.309,0.308,0.514,0.514,0.514h0.102
	c1.333-0.205,2.151-0.41,2.562-0.514h0.102c1.024-0.512,2.151-1.127,3.177-1.844l0.103-0.102c0.205-0.307,1.128-1.23,2.357-2.869
	c0.205-0.207,0.102-0.615-0.103-0.82C69.171,115.367,68.761,115.471,68.556,115.676z"/>
<path fill="#FFFFFF" d="M61.998,117.008c-0.205-0.205-0.615-0.104-0.82,0.102c-1.024,1.436-2.356,2.664-3.791,3.996
	c-1.537,0.205-3.178,0.412-4.817,0.514c-0.307,0-0.512,0.307-0.512,0.615c0,0.307,0.308,0.512,0.615,0.512l0,0
	c1.741-0.104,3.382-0.307,5.123-0.512c0.103,0,0.205-0.104,0.308-0.104c1.537-1.332,2.869-2.766,4.099-4.201
	C62.305,117.623,62.202,117.213,61.998,117.008z"/>
<path fill="#FFFFFF" d="M74.397,106.145c-0.309-0.102-0.615,0-0.717,0.309c-0.104,0.205-0.923,1.947-1.538,3.279
	c-0.615,1.23-1.024,2.049-1.127,2.254c-0.205,0.307-0.308,0.615-0.514,0.82c-1.435,0.512-3.073,0.922-4.815,1.229
	c-0.307,0.104-0.513,0.41-0.409,0.717c0.103,0.309,0.308,0.41,0.512,0.41h0.103c1.845-0.41,3.587-0.818,5.124-1.33
	c0.103,0,0.204-0.104,0.308-0.205c0.204-0.309,0.409-0.719,0.614-1.025l0,0l0,0c0.104-0.205,0.615-1.23,1.127-2.256
	c0.923-1.844,1.538-3.176,1.641-3.381C74.807,106.658,74.705,106.248,74.397,106.145z"/>
<path fill="#FFFFFF" d="M47.036,65.155h0.103c1.742,0,3.484,0,5.124-0.102c0.205,0,0.307-0.103,0.41-0.205
	c0.102-0.103,0.102-0.308,0.102-0.512c-0.717-2.05-1.536-4.099-2.356-6.046c-0.103-0.308-0.513-0.41-0.718-0.308
	c-0.307,0.103-0.409,0.513-0.307,0.718c0.717,1.64,1.435,3.382,2.049,5.226c-1.332,0.102-2.767,0.102-4.304,0.102h-0.103
	c-0.307,0-0.614,0.206-0.614,0.615C46.422,65.053,46.729,65.155,47.036,65.155z"/>
<path fill="#FFFFFF" d="M62.92,62.184c-0.718,0.205-1.639,0.512-2.46,0.717c-0.307,0.102-0.512,0.409-0.409,0.717
	c0.103,0.307,0.308,0.409,0.513,0.409h0.102c1.333-0.307,2.46-0.614,3.485-1.024c0.204-0.102,0.307-0.205,0.307-0.41
	c0-0.205,0-0.409-0.205-0.512c-2.152-2.049-4.405-3.997-6.968-5.739c-0.308-0.205-0.615-0.103-0.82,0.102
	c-0.204,0.308-0.103,0.615,0.103,0.82C59.025,58.7,61.075,60.339,62.92,62.184z"/>
<path fill="#FFFFFF" d="M51.34,55.728c-0.102,0-0.205,0-0.307,0c-0.308,0-0.512,0.308-0.512,0.615s0.307,0.512,0.512,0.512h0.102
	c0.513-0.102,0.923-0.102,1.333-0.205c0.205,0,0.409-0.205,0.409-0.41c0.103-0.205,0-0.41-0.103-0.513
	c-1.332-1.537-2.459-2.664-3.074-3.381c-0.204-0.205-0.613-0.205-0.819,0c-0.205,0.205-0.205,0.615,0,0.82
	C49.496,53.678,50.315,54.601,51.34,55.728z"/>
<path fill="#FFFFFF" d="M53.391,55.01c0.204,0.103,0.409,0.308,0.613,0.41c0,0.103,0,0.205,0,0.307
	c0.104,0.205,0.308,0.41,0.514,0.41c0.103,0,0.103,0,0.204,0h0.104c0.102,0,0.307-0.102,0.409-0.102
	c0.204-0.103,0.308-0.308,0.409-0.513c0-0.205-0.102-0.41-0.307-0.513c-0.512-0.307-1.025-0.615-1.435-0.922
	c-0.308-0.205-0.615-0.103-0.82,0.205C53.082,54.498,53.186,54.806,53.391,55.01z"/>
<path fill="#FFFFFF" d="M80.854,76.428c0.102,0.205,0.307,0.41,0.513,0.41c0.102,0,0.102,0,0.205,0
	c0.307-0.103,0.408-0.41,0.307-0.718c-0.923-2.664-2.152-5.124-3.689-7.583c-0.204-0.307-0.513-0.307-0.819-0.205
	c-0.308,0.205-0.308,0.513-0.206,0.82C78.804,71.406,80.033,73.866,80.854,76.428z"/>
<path fill="#FFFFFF" d="M14.449,79.604c0.103,0.103,0.206,0.103,0.308,0.103c0.103,0,0.103,0,0.205,0
	c0.205-0.103,0.308-0.205,0.41-0.41c0.819-2.869,2.152-5.636,3.894-8.403c0.205-0.308,0.102-0.615-0.206-0.82
	c-0.307-0.205-0.615-0.103-0.819,0.205c-1.64,2.562-2.869,5.124-3.792,7.788c-0.82-0.717-1.127-1.332-1.229-1.537
	c-0.103-0.307-0.513-0.41-0.82-0.205c-0.307,0.103-0.41,0.513-0.205,0.82C12.502,77.555,13.117,78.477,14.449,79.604z"/>
<path fill="#FFFFFF" d="M75.934,67.103c0,0-0.102,0.103-0.102,0.205c-0.205,0.206-0.205,0.615,0.102,0.82
	c0.104,0.103,0.206,0.103,0.308,0.103c0.205,0,0.309-0.103,0.41-0.206c0.205-0.205,0.307-0.41,0.41-0.614
	c0.102-0.205,0.102-0.41,0-0.615c-1.845-2.562-3.997-4.817-6.354-6.866c-0.206-0.205-0.615-0.205-0.819,0.103
	c-0.205,0.307-0.205,0.614,0.102,0.819C72.143,62.593,74.192,64.746,75.934,67.103z"/>
<path fill="#FFFFFF" d="M60.051,55.01c2.767,1.127,5.431,2.562,7.891,4.304l-0.104,0.103c-0.205,0.205-0.205,0.615,0.104,0.82
	c0.103,0.103,0.205,0.103,0.409,0.103c0.205,0,0.308-0.103,0.41-0.205c0.205-0.205,0.41-0.512,0.513-0.717s0.103-0.615-0.206-0.717
	c-2.664-1.947-5.533-3.587-8.607-4.714c-0.307-0.103-0.613,0-0.718,0.307C59.641,54.498,59.742,54.806,60.051,55.01z"/>
<path fill="#FFFFFF" d="M27.566,60.954c0.102,0.103,0.205,0.103,0.41,0.103c0.102,0,0.307,0,0.409-0.103
	c2.152-1.845,4.612-3.586,7.276-5.124c0.308-0.205,0.308-0.512,0.205-0.82c-0.205-0.307-0.512-0.307-0.82-0.205
	c-2.562,1.537-4.918,3.176-6.968,4.918c-0.615-0.615-0.819-1.127-1.025-1.435c-0.103-0.308-0.41-0.41-0.717-0.308
	c-0.307,0.103-0.41,0.41-0.307,0.718C26.131,59.212,26.542,60.032,27.566,60.954z"/>
<path fill="#FFFFFF" d="M19.573,69.459c0.103,0.103,0.205,0.103,0.308,0.103c0.205,0,0.307-0.103,0.512-0.205
	c1.742-2.459,3.997-4.816,6.456-7.071c0.102-0.102,0.205-0.308,0.205-0.41c0-0.205-0.103-0.307-0.205-0.409
	c-0.103-0.103-0.205-0.206-0.307-0.308c-0.206-0.205-0.615-0.205-0.82,0c-0.205,0.206-0.205,0.513-0.103,0.717
	c-2.254,2.05-4.201,4.202-5.841,6.354c-0.819-0.615-1.332-1.23-1.537-1.538c-0.205-0.205-0.513-0.307-0.82-0.103
	c-0.205,0.206-0.308,0.513-0.103,0.82C17.728,67.82,18.343,68.64,19.573,69.459z"/>
<path fill="#FFFFFF" d="M36.891,54.703c0.102,0.103,0.205,0.103,0.307,0.103c0.103,0,0.205,0,0.308-0.103
	c0.922-0.512,1.845-1.025,2.665-1.435c0.307-0.102,0.409-0.512,0.205-0.717c-0.103-0.307-0.513-0.41-0.717-0.205
	c-0.82,0.41-1.639,0.82-2.459,1.332c-0.205-0.103-0.307-0.205-0.512-0.307c-0.205-0.205-0.615-0.103-0.82,0.103
	c-0.205,0.205-0.103,0.615,0.103,0.819C36.276,54.293,36.583,54.498,36.891,54.703z"/>
<path fill="#FFFFFF" d="M41.4,56.547c0.103,0,0.307,0.103,0.512,0.103h0.205h0.103c0.205,0,0.41-0.103,0.513-0.307
	c0.307-0.41,0.512-0.82,0.819-1.23c0.205-0.307,0.103-0.615-0.102-0.82c-0.308-0.205-0.615-0.102-0.82,0.205
	c-0.205,0.308-0.41,0.615-0.614,0.922c-0.103,0-0.206,0-0.206-0.102c-0.307-0.103-0.615,0.102-0.717,0.409
	C40.99,56.138,41.092,56.445,41.4,56.547z"/>
<path fill="#FFFFFF" d="M34.124,62.696c-0.308-0.103-0.615,0.103-0.717,0.41c-0.102,0.308,0.103,0.615,0.41,0.717
	c1.23,0.308,2.562,0.513,3.894,0.717h0.103c0.206,0,0.41-0.103,0.513-0.307c1.025-2.049,2.049-4.099,3.279-6.046
	c0.205-0.308,0.102-0.615-0.205-0.82c-0.308-0.206-0.615-0.103-0.82,0.205c-1.126,1.845-2.152,3.792-3.074,5.738
	C36.276,63.208,35.149,63.003,34.124,62.696z"/>
<path fill="#FFFFFF" d="M44.269,57.06c0.41,0,0.82,0.102,1.333,0.102l0,0c0.308,0,0.512-0.205,0.615-0.512
	c0.102-0.82,0.102-1.64,0.205-2.254c0-0.307-0.205-0.615-0.513-0.615s-0.616,0.205-0.616,0.512c0,0.513-0.102,1.127-0.102,1.743
	c-0.205,0-0.512,0-0.717-0.103c-0.307,0-0.615,0.205-0.615,0.512C43.757,56.753,43.961,56.958,44.269,57.06z"/>
<path fill="#FFFFFF" d="M11.58,62.314c0.103,0.205,0.308,0.41,0.513,0.41l0,0c0.307,0,0.512-0.205,0.512-0.513l1.127-8.915
	l7.173-2.357c0.205-0.103,0.41-0.308,0.41-0.615c0-0.307-0.205-0.512-0.512-0.512l-7.481-1.23l-2.049-6.763
	c-0.103-0.205-0.308-0.41-0.615-0.41c-0.308,0-0.513,0.205-0.513,0.513l-1.23,6.866L0.41,51.452C0.103,51.555,0,51.76,0,52.067
	c0,0.308,0.205,0.513,0.513,0.513l8.3,1.024L11.58,62.314z M9.632,49.71c0.206-0.103,0.308-0.205,0.41-0.41l0.922-4.918l1.538,4.918
	c0.102,0.205,0.205,0.307,0.409,0.41l5.534,0.922l-5.328,1.742c-0.206,0.103-0.41,0.205-0.41,0.512l-0.82,6.661L9.94,52.989
	c-0.103-0.205-0.206-0.41-0.513-0.41l-6.046-0.717L9.632,49.71z"/>
<path fill="#FFFFFF" d="M89.665,47.046l-4.919-0.82l-1.435-4.509c-0.103-0.205-0.307-0.41-0.615-0.41
	c-0.308,0-0.513,0.205-0.513,0.513l-0.818,4.611l-5.638,1.742c-0.307,0.103-0.409,0.308-0.409,0.615s0.204,0.512,0.513,0.512
	l5.534,0.717l1.741,5.841c0.103,0.205,0.307,0.41,0.512,0.41l0,0c0.308,0,0.513-0.205,0.513-0.513l0.717-5.943l4.715-1.538
	c0.205-0.103,0.41-0.307,0.41-0.615C90.074,47.354,89.87,47.148,89.665,47.046z M84.234,48.788
	c-0.205,0.102-0.411,0.205-0.411,0.512l-0.512,3.689L82.184,49.3c-0.102-0.205-0.205-0.41-0.512-0.41l-3.28-0.41l3.485-1.025
	c0.205-0.102,0.307-0.205,0.41-0.41l0.513-2.664l0.818,2.664c0.104,0.205,0.205,0.308,0.411,0.41l2.972,0.513L84.234,48.788z"/>
<path fill="#FFFFFF" d="M88.609,119.496l-4.815-1.333l-1.025-4.611c-0.102-0.205-0.307-0.41-0.513-0.41
	c-0.307,0-0.512,0.205-0.615,0.41l-1.229,4.51l-5.84,1.229c-0.308,0.102-0.411,0.307-0.411,0.512s0.206,0.512,0.411,0.512
	l5.431,1.229l1.23,6.048c0.102,0.307,0.307,0.408,0.512,0.408l0,0c0.307,0,0.512-0.204,0.512-0.408l1.332-5.843l4.919-1.126
	c0.205-0.104,0.41-0.309,0.41-0.514C89.123,119.803,88.917,119.598,88.609,119.496z M83.179,120.623c-0.205,0-0.41,0.204-0.41,0.409
	l-0.819,3.586l-0.717-3.791c0-0.204-0.205-0.41-0.411-0.41l-3.279-0.614l3.485-0.718c0.205,0,0.409-0.205,0.409-0.41l0.717-2.562
	l0.615,2.665c0,0.204,0.205,0.409,0.41,0.409l2.971,0.82L83.179,120.623z"/>
</svg>
