<?xml version="1.0" encoding="utf-8"?>
<!-- Generator: Adobe Illustrator 14.0.0, SVG Export Plug-In . SVG Version: 6.00 Build 43363)  -->
<!DOCTYPE svg PUBLIC "-//W3C//DTD SVG 1.1//EN" "http://www.w3.org/Graphics/SVG/1.1/DTD/svg11.dtd">
<svg version="1.1" id="Layer_1" xmlns="http://www.w3.org/2000/svg" xmlns:xlink="http://www.w3.org/1999/xlink" x="0px" y="0px"
	 width="90px" height="90px" viewBox="0 38 90 90" enable-background="new 0 38 90 90" xml:space="preserve">
<path fill="#FFFFFF" d="M89.939,81.028c0.1-0.192,0.075-0.427-0.06-0.599c-0.137-0.171-0.357-0.25-0.569-0.198
	c-0.1,0.025-2.35,0.573-3.926,2.213c-0.435-0.137-0.886-0.388-1.348-0.748c-1.387-1.083-2.868-3.726-4.286-7.641
	c-0.047-3.463-1.825-6.036-1.901-6.143c-0.154-0.221-0.446-0.299-0.69-0.189c-0.245,0.11-0.376,0.38-0.314,0.641
	c0.008,0.027,0.68,2.798,1.786,5.889c-0.008,1.256-0.309,2.452-0.835,3.589c-0.061-0.183-0.115-0.368-0.179-0.55
	c-0.181-0.51-0.37-1.015-0.571-1.514c-0.575-1.433-1.257-2.81-1.998-4.151c0.157-0.031,0.302-0.124,0.383-0.274
	c0.136-0.25,0.062-0.562-0.172-0.725c0,0-0.206-0.146-0.556-0.345c-0.548-0.438-1.246-1.287-1.51-2.871
	c-0.104-0.629,0-1.167,0.314-1.637c1.564,0.012,2.449-1.597,2.484-1.666c0.1-0.196,0.074-0.429-0.06-0.599
	c-0.137-0.171-0.359-0.248-0.57-0.197c-0.06,0.014-1.326,0.322-2.276,1.236c-0.186-0.075-0.378-0.191-0.575-0.346
	c-0.764-0.597-1.591-2.076-2.392-4.279c-0.041-2.055-1.095-3.583-1.143-3.648c-0.153-0.221-0.445-0.3-0.688-0.189
	c-0.245,0.11-0.377,0.381-0.314,0.642c0.017,0.065,0.392,1.61,1.027,3.393c-0.016,0.909-0.292,1.761-0.799,2.553
	c-0.928-0.912-1.885-1.796-2.905-2.606c-1.092-0.866-2.232-1.674-3.417-2.418c-0.041-0.025-0.079-0.052-0.121-0.076
	c-0.376-0.234-0.754-0.465-1.14-0.688c-5.479-3.16-11.813-5.005-18.569-5.106V38h-1.157v13.781
	c-6.753,0.102-13.089,1.946-18.569,5.108c-0.384,0.221-0.764,0.451-1.14,0.686c-0.042,0.024-0.081,0.051-0.123,0.076
	c-1.184,0.744-2.325,1.552-3.417,2.418c-1.602,1.271-3.1,2.665-4.478,4.172c-0.303,0.332-0.602,0.67-0.894,1.013
	c-0.561,0.657-1.098,1.332-1.613,2.024c-0.424,0.573-0.833,1.159-1.228,1.755c-1.394,2.112-2.583,4.369-3.536,6.746
	c-0.201,0.499-0.389,1.003-0.57,1.514c-0.87,2.466-1.494,5.045-1.838,7.709c-0.058,0.449-0.105,0.9-0.146,1.352
	c-0.107,1.164-0.167,2.34-0.167,3.53c0,1.951,0.149,3.869,0.434,5.742c0.063,0.409,0.135,0.817,0.209,1.224
	c0.269,1.439,0.641,2.842,1.07,4.221c-1.182-1.818-3.141-2.656-3.229-2.694c-0.23-0.097-0.498-0.026-0.655,0.173
	c-0.154,0.197-0.159,0.474-0.009,0.677c0.062,0.083,1.476,1.988,3.216,2.886c0.269,0.536,0.414,1.107,0.435,1.703
	c0.023,0.678-0.174,1.277-0.61,1.832c-1.896,0.607-3.745,2.078-3.825,2.141c-0.203,0.164-0.268,0.445-0.155,0.678
	c0.111,0.236,0.372,0.363,0.623,0.307c0.105-0.02,2.528-0.562,3.99-2.143c0.717-0.186,1.292-0.162,1.688,0.07
	c0.906,0.535,1.346,3.877,1.119,8.516c-0.054,0.676-0.068,1.104-0.068,1.104c-0.009,0.303,0.224,0.561,0.528,0.578
	c0.01,0,0.021,0,0.033,0c0.289,0,0.534-0.221,0.557-0.514c0,0,0.034-0.422,0.068-1.098c0.145-1.838,0.403-3.445,0.742-4.736
	c1.293,1.988,2.75,3.861,4.382,5.572c0.291,0.305,0.588,0.604,0.891,0.898c2.252,2.209,4.776,4.143,7.518,5.746
	c0.427,0.252,0.86,0.492,1.297,0.729c5.356,2.859,11.468,4.488,17.955,4.506c0.032,0,0.063,0,0.093,0c0.029,0,0.06,0,0.093,0
	c6.487-0.018,12.598-1.646,17.954-4.506c0.439-0.236,0.87-0.477,1.299-0.729c2.741-1.602,5.267-3.537,7.517-5.746
	c0.302-0.295,0.6-0.594,0.892-0.898c2.536-2.656,4.692-5.678,6.383-8.973c0.184-0.357,0.36-0.721,0.533-1.086
	c1.141-2.412,2.019-4.971,2.634-7.627c-0.23,3.186,0.042,6.178,0.056,6.316c0.026,0.277,0.253,0.494,0.531,0.508
	c0.009,0,0.018,0,0.026,0c0.267,0,0.5-0.191,0.548-0.457c0.03-0.152,0.699-3.775,0.052-7.355c0.341-3.029,1.13-4.92,2.285-5.467
	c1.255-0.598,2.536-0.582,3.78,0.035c1.09,1.312,2.174,1.755,2.222,1.771c0.232,0.094,0.502,0.021,0.655-0.182
	c0.15-0.199,0.15-0.479-0.002-0.678c-0.034-0.045-0.827-1.07-2.149-1.795c-0.857-1.098-1.433-2.492-1.711-4.148
	c-0.21-1.264,0.039-2.377,0.741-3.316C88.454,83.922,89.882,81.142,89.939,81.028z M72.842,87.18
	c-0.354,1.168-1.418,2.121-3.159,2.839c-1.275,0.069-2.441,0.276-3.399,0.501c0.005-0.213,0.012-0.423,0.012-0.636
	c0-2.317-0.139-4.585-0.4-6.789c2.366,0.374,4.57,0.802,6.618,1.267C72.916,85.299,73.116,86.283,72.842,87.18z M74.527,91.803
	c0.489,0.188,0.959,0.404,1.389,0.674c0.936,0.582,1.672,1.464,2.206,2.631c-1.131-0.457-2.366-0.896-3.707-1.305
	C74.474,93.143,74.501,92.473,74.527,91.803z M65.66,67.494c-0.124,0.408-0.427,0.773-0.902,1.085
	c-0.962-0.05-1.846,0.146-2.567,0.389c-0.472-1.104-0.974-2.181-1.517-3.201c1.792,0.277,3.453,0.598,5.018,0.942
	C65.735,66.979,65.737,67.247,65.66,67.494z M69.019,71.873c0.046-0.133,0.1-0.248,0.152-0.363c0.372,0.742,0.733,1.492,1.061,2.268
	c-0.347-0.081-0.715-0.154-1.078-0.229C69.178,73.003,69.15,72.433,69.019,71.873z M68.562,76.38
	c0.022-0.052,0.278-0.713,0.449-1.629c0.6,0.131,1.204,0.263,1.769,0.403c0.768,2.029,1.357,4.161,1.796,6.362
	c-0.216-0.066-0.435-0.151-0.656-0.261c-1.65-2.118-3.644-3.686-3.729-3.753c-0.211-0.165-0.51-0.156-0.713,0.021
	c-0.202,0.177-0.248,0.473-0.112,0.704c0.063,0.11,1.593,2.675,3.816,3.905c0.19,0.251,0.381,0.527,0.565,0.812
	c-1.27-0.275-2.576-0.534-3.95-0.772c-0.494-0.085-0.997-0.169-1.505-0.25c-0.185-0.028-0.374-0.056-0.559-0.083
	c-0.396-2.814-0.993-5.511-1.769-8.056c1.22,0.197,2.38,0.415,3.505,0.642c-0.044,0.98,0.011,1.737,0.017,1.793
	c0.021,0.259,0.218,0.47,0.475,0.508c0.027,0.004,0.056,0.006,0.082,0.006C68.27,76.732,68.478,76.596,68.562,76.38z M67.573,73.222
	c-1.293-0.26-2.617-0.51-4.022-0.729c-0.228-0.681-0.482-1.337-0.739-1.991c0.715-0.156,1.512-0.396,2.206-0.774
	c0.595,0.078,1.152,0.276,1.657,0.59c0.574,0.36,0.959,0.861,1.175,1.529C67.719,72.295,67.633,72.764,67.573,73.222z
	 M62.513,62.503c0.038,0.064,0.937,1.569,2.254,2.321c0.128,0.17,0.255,0.356,0.374,0.551c-1.651-0.34-3.387-0.644-5.194-0.907
	c-1.571-2.691-3.388-5.038-5.396-6.958c1.065,0.148,2.088,0.311,3.059,0.489c1.733,1.176,3.346,2.557,4.852,4.076
	C62.423,62.217,62.434,62.37,62.513,62.503z M62.703,73.586c0.803,2.542,1.428,5.243,1.843,8.072
	c-2.88-0.413-5.938-0.752-9.141-1.005c-0.254-2.82-0.625-5.502-1.098-8.023C57.289,72.871,60.094,73.196,62.703,73.586z
	 M54.641,91.564c-0.053,3.209-0.249,6.344-0.591,9.348c-2.39-0.225-4.844-0.385-7.318-0.479c0.112-2.997,0.178-6.121,0.189-9.312
	C49.606,91.209,52.185,91.357,54.641,91.564z M53.908,102.086c-0.416,3.295-1.004,6.416-1.75,9.281
	c-1.974-0.205-4.012-0.352-6.068-0.443c0.253-2.881,0.452-6.002,0.591-9.287C49.206,101.725,51.619,101.877,53.908,102.086z
	 M55.076,102.196c3.051,0.31,5.866,0.714,8.419,1.194c-0.842,3.336-1.984,6.436-3.377,9.219c-0.562-0.121-1.132-0.24-1.723-0.35
	c-1.596-0.299-3.288-0.553-5.041-0.76C54.076,108.662,54.659,105.539,55.076,102.196z M55.21,101.025
	c0.333-2.973,0.533-6.105,0.586-9.358c2.789,0.257,5.417,0.587,7.86,0.976c0.475,0.074,0.939,0.154,1.399,0.234
	c-0.168,3.26-0.609,6.4-1.285,9.369C61.093,101.742,58.211,101.334,55.21,101.025z M73.381,91.438
	c-0.023,0.682-0.049,1.36-0.104,2.03c-1.026-0.289-2.098-0.566-3.223-0.827c-0.463-0.106-0.932-0.211-1.41-0.311
	c-0.493-0.106-0.996-0.208-1.506-0.309c-0.079-0.015-0.161-0.027-0.241-0.043c0.941-0.181,2.01-0.448,3.03-0.852
	c0.21-0.01,0.423-0.014,0.641-0.014C71.579,91.115,72.516,91.227,73.381,91.438z M71.614,74.114
	c-0.488-1.229-1.044-2.414-1.64-3.568c0.018-0.009,0.031-0.023,0.047-0.032c0.318-0.149,0.686-0.228,1.095-0.228
	c0.741,0,1.494,0.248,2.111,0.517c0.873,1.43,1.674,2.91,2.346,4.46C74.345,74.857,73.023,74.474,71.614,74.114z M69.772,62.052
	c0.668,1.474,1.354,2.49,2.051,3.033c0.189,0.148,0.381,0.274,0.572,0.375c-0.328,0.636-0.435,1.361-0.307,2.135
	c0.12,0.709,0.314,1.302,0.549,1.797c-1.036-0.292-2.211-0.314-3.1,0.11c-0.431,0.205-0.797,0.539-1.098,1.001
	c-0.302-0.455-0.692-0.833-1.173-1.135c-0.353-0.22-0.725-0.396-1.111-0.526c0.269-0.31,0.463-0.651,0.576-1.022
	c0.232-0.767,0.106-1.627-0.374-2.569c0.887-0.03,1.702-0.515,2.428-1.443C69.219,63.254,69.551,62.668,69.772,62.052z
	 M61.694,58.907c2.09,1.356,4.02,2.933,5.79,4.669c-0.556,0.516-1.129,0.667-1.751,0.456c-1.634-2.034-3.435-3.885-5.417-5.47
	C60.794,58.673,61.251,58.79,61.694,58.907z M58.042,56.822c-0.056-0.011-0.11-0.021-0.168-0.031
	c-0.107-0.071-0.215-0.146-0.324-0.216C57.715,56.655,57.879,56.74,58.042,56.822z M54.808,56.312
	c-0.621-0.083-1.253-0.16-1.89-0.233c-0.724-0.58-1.465-1.11-2.228-1.581C52.106,54.994,53.479,55.604,54.808,56.312z
	 M52.577,57.263c2.209,1.84,4.206,4.214,5.928,7.005c-2.123-0.28-4.321-0.508-6.567-0.68c-0.927-2.609-1.994-4.856-3.174-6.672
	C50.083,57.009,51.355,57.126,52.577,57.263z M51.072,64.722c0.683,2.032,1.272,4.239,1.769,6.582
	c-0.785-0.057-1.576-0.108-2.379-0.151c-1.375-0.076-2.777-0.132-4.197-0.174c-0.175-2.315-0.385-4.5-0.624-6.516
	C47.512,64.515,49.322,64.603,51.072,64.722z M45.602,80.165c-1.36-0.03-2.737-0.047-4.129-0.047c-1.394,0-2.771,0.017-4.131,0.047
	c0.095-2.783,0.232-5.465,0.411-7.997c0.766-0.017,1.537-0.03,2.318-0.036c0.465-0.004,0.932-0.006,1.402-0.006
	c0.47,0,0.936,0.002,1.401,0.006c0.781,0.005,1.552,0.02,2.317,0.036C45.368,74.7,45.506,77.381,45.602,80.165z M45.103,70.95
	c-0.746-0.016-1.495-0.028-2.25-0.033c-0.458-0.004-0.918-0.007-1.38-0.007c-0.463,0-0.921,0.003-1.379,0.007
	c-0.755,0.005-1.506,0.019-2.25,0.033c0.176-2.319,0.388-4.501,0.63-6.513c0.986-0.021,1.984-0.032,3-0.032
	c1.017,0,2.012,0.012,2.999,0.032C44.713,66.448,44.924,68.629,45.103,70.95z M41.471,52.929c0.009,0,0.587,0.112,1.337,2.529
	c-0.446-0.006-0.89-0.01-1.337-0.01c-0.444,0-0.891,0.004-1.337,0.01C40.884,53.042,41.462,52.929,41.471,52.929z M37.453,63.248
	c-1.728,0.052-3.45,0.132-5.152,0.246c1-2.715,2.142-4.959,3.37-6.672c0.952-0.053,1.927-0.09,2.92-0.116
	C38.206,58.309,37.82,60.433,37.453,63.248z M18.04,102.463c-1.539,0.314-3.005,0.658-4.376,1.029
	c-0.046,0.016-0.088,0.027-0.133,0.041c0.373-0.77,0.928-1.666,1.663-2.678c1.099-0.773,1.761-1.773,2.1-2.398
	C17.499,99.818,17.744,101.16,18.04,102.463z M12.711,73.777c1.04-2.469,2.311-4.782,3.778-6.907c1.771-0.41,3.703-0.78,5.779-1.102
	c-1.106,2.072-2.072,4.325-2.877,6.726C17.013,72.865,14.78,73.293,12.711,73.777z M20.24,73.586
	c2.609-0.392,5.413-0.715,8.395-0.957c-0.471,2.521-0.843,5.203-1.098,8.023c-3.202,0.252-6.26,0.592-9.14,1.006
	C18.812,78.831,19.437,76.129,20.24,73.586z M28.612,81.79c2.415-0.175,4.927-0.304,7.532-0.379
	c-0.082,2.748-0.125,5.585-0.125,8.473c0,0.009,0,0.015,0,0.021c-2.662,0.087-5.242,0.237-7.727,0.446
	c0-0.156-0.004-0.311-0.004-0.467C28.288,87.127,28.4,84.419,28.612,81.79z M36.021,91.121c0.013,3.19,0.077,6.313,0.191,9.312
	c-2.475,0.095-4.928,0.255-7.321,0.479c-0.337-3.003-0.537-6.137-0.59-9.348C30.758,91.357,33.336,91.209,36.021,91.121z
	 M32.484,71.153c-0.806,0.042-1.597,0.095-2.381,0.151c0.495-2.343,1.084-4.55,1.769-6.582c1.748-0.119,3.56-0.207,5.431-0.26
	c-0.241,2.016-0.448,4.202-0.624,6.516C35.257,71.021,33.857,71.077,32.484,71.153z M37.001,53.593
	c-0.666,0.562-1.307,1.251-1.925,2.051c-0.949,0.059-1.89,0.127-2.821,0.211C33.765,54.854,35.352,54.087,37.001,53.593z
	 M32.251,54.497c-0.762,0.471-1.503,1-2.225,1.581c-0.639,0.072-1.27,0.149-1.89,0.234C29.463,55.604,30.835,54.994,32.251,54.497z
	 M25.392,56.576c-0.109,0.07-0.216,0.146-0.324,0.216c-0.056,0.011-0.112,0.021-0.169,0.031
	C25.063,56.741,25.226,56.655,25.392,56.576z M30.366,57.263c1.221-0.139,2.493-0.254,3.812-0.347
	c-1.179,1.816-2.248,4.064-3.173,6.672c-2.247,0.172-4.447,0.4-6.568,0.68C26.16,61.477,28.157,59.104,30.366,57.263z
	 M12.989,66.201c0.267-0.316,0.539-0.628,0.815-0.936c2.186-2.43,4.689-4.57,7.443-6.357c0.445-0.118,0.904-0.234,1.379-0.346
	c-2.553,2.041-4.84,4.484-6.802,7.245c-0.358,0.084-1.063,0.256-1.063,0.256s-1.598,0.315-1.504,0.401
	c-0.216,0.062-0.43,0.124-0.642,0.187C12.741,66.499,12.865,66.349,12.989,66.201z M15.804,93.258
	c0.304-0.059,0.622-0.115,0.934-0.175c0.074,1.369,0.207,2.711,0.373,4.035c-0.171-0.018-0.348,0.038-0.471,0.173
	c-0.045,0.051-1.116,1.225-2.237,2.748c-0.902,0.59-1.922,0.846-3.098,0.769c-0.125-0.01-0.242-0.03-0.358-0.053
	c-0.525-1.958-0.926-3.978-1.162-6.06C11.603,94.175,13.611,93.691,15.804,93.258z M8.629,95.039
	c0.009-0.002,0.019-0.007,0.027-0.01c0.198,1.693,0.527,3.336,0.917,4.949c-0.38-0.426-0.669-1.012-0.864-1.775
	C8.77,97.016,8.702,95.841,8.629,95.039z M7.582,98.307c-0.113,1.773-0.533,2.897-1.16,3.089c-0.061,0.02-0.127,0.026-0.191,0.037
	c-0.549-1.644-1.011-3.327-1.321-5.063c0.734-0.305,1.553-0.6,2.408-0.887C7.303,96.281,7.349,97.307,7.582,98.307z M6.758,76.751
	c1.229-0.438,2.582-0.855,4.049-1.249c-0.901,2.534-1.574,5.202-1.982,7.972C7.371,83.83,6,84.209,4.712,84.607
	C5.107,81.883,5.799,79.251,6.758,76.751z M4.334,89.884c0-1.328,0.072-2.641,0.209-3.933c1.27-0.409,2.64-0.799,4.107-1.168
	c-0.194,1.67-0.296,3.373-0.296,5.102c0,1.324,0.059,2.631,0.173,3.919c-0.027,0.009-0.055,0.02-0.083,0.028
	c-0.099-0.164-0.275-0.273-0.476-0.273c-0.28,0-0.516,0.204-0.555,0.482c-0.002,0.012-0.008,0.059-0.016,0.135
	c-0.947,0.312-1.856,0.635-2.686,0.977C4.464,93.43,4.334,91.672,4.334,89.884z M8.474,109.475
	c-0.224-1.791-0.688-3.234-1.547-3.742c-0.395-0.232-0.861-0.352-1.388-0.352c-0.019,0-0.038,0-0.059,0.002
	c0.208-0.504,0.304-1.041,0.285-1.607c-0.016-0.416-0.078-0.822-0.188-1.216c0.41,0.05,0.803,0.021,1.171-0.095
	c0.785-0.24,1.338-0.961,1.658-2.154c0.805,1.188,1.908,1.549,2.817,1.615c0.721,0.047,1.376-0.009,2.008-0.167
	c-0.848,1.38-1.308,2.515-1.37,3.394c-0.021,0.307,0.02,0.604,0.122,0.891c-0.863,0.02-1.552,0.268-2.05,0.738
	C9.306,107.379,8.834,108.355,8.474,109.475z M13.555,107.773c1.889,1.186,4.759,1.686,4.9,1.711
	c0.272,0.043,0.525-0.107,0.619-0.357c0.093-0.252-0.005-0.533-0.233-0.674c-0.124-0.076-2.945-1.785-5.489-2.277
	c-0.272-0.311-0.395-0.621-0.372-0.943c0.007-0.096,0.024-0.201,0.046-0.309c0.208-0.062,0.411-0.125,0.627-0.188
	c0.452-0.129,0.916-0.254,1.394-0.377c0.481-0.121,0.971-0.242,1.478-0.361c0.577-0.133,1.179-0.26,1.791-0.385
	c0.842,3.338,1.981,6.449,3.37,9.256c-0.222,0.055-0.443,0.109-0.659,0.164c-1.321,0.342-2.536,0.721-3.623,1.137
	C15.927,112.215,14.65,110.059,13.555,107.773z M23.422,122.17c-2.853-1.586-5.475-3.535-7.803-5.787
	c0.444-0.244,0.937-0.484,1.486-0.719c1.956,2.445,4.184,4.596,6.63,6.387C23.631,122.094,23.522,122.131,23.422,122.17z
	 M22.827,112.609c-1.393-2.781-2.536-5.883-3.377-9.219c2.551-0.48,5.367-0.888,8.418-1.194c0.417,3.343,0.999,6.466,1.722,9.304
	c-1.751,0.207-3.445,0.461-5.041,0.76C23.959,112.367,23.389,112.486,22.827,112.609z M24.874,122.934
	c0.026-0.01,0.057-0.02,0.085-0.029c0.146,0.098,0.287,0.197,0.433,0.291C25.217,123.109,25.046,123.02,24.874,122.934z
	 M26.408,122.469c0.557-0.15,1.143-0.293,1.757-0.424c1.288,1.26,2.655,2.342,4.088,3.225
	C30.211,124.559,28.255,123.615,26.408,122.469z M32.284,116.227c-0.426-1.16-0.817-2.389-1.177-3.668
	c1.846-0.191,3.802-0.336,5.857-0.426c0.146,1.535,0.308,2.994,0.486,4.365c0.152,1.168,0.308,2.213,0.465,3.156
	c-1.384,0.064-2.733,0.16-4.035,0.293C33.317,118.828,32.782,117.588,32.284,116.227z M34.501,121.104
	c1.172-0.109,2.385-0.189,3.627-0.242c0.54,2.891,1.094,4.613,1.603,5.635C37.89,125.771,36.097,123.916,34.501,121.104z
	 M41.471,126.84c-0.013,0-1.061-0.203-2.171-6.018c0.719-0.02,1.441-0.035,2.171-0.035c0.731,0,1.454,0.018,2.172,0.035
	C42.532,126.637,41.486,126.84,41.471,126.84z M44.344,116.35c-0.159,1.227-0.322,2.305-0.485,3.26
	c-0.788-0.023-1.585-0.039-2.389-0.039c-0.806,0-1.601,0.016-2.39,0.039c-0.161-0.955-0.323-2.033-0.482-3.26
	c-0.175-1.338-0.334-2.762-0.478-4.258c1.093-0.033,2.208-0.051,3.35-0.051c1.142,0,2.258,0.018,3.349,0.051
	C44.678,113.588,44.518,115.012,44.344,116.35z M41.471,110.824c-1.15,0-2.306,0.021-3.459,0.059
	c-0.254-2.875-0.453-5.998-0.593-9.279c1.323-0.038,2.672-0.058,4.052-0.058s2.73,0.02,4.053,0.058
	c-0.14,3.281-0.338,6.404-0.593,9.279C43.777,110.844,42.622,110.824,41.471,110.824z M45.492,116.5
	c0.179-1.371,0.34-2.832,0.487-4.365c2.056,0.088,4.011,0.232,5.856,0.426c-0.36,1.279-0.751,2.506-1.177,3.668
	c-0.497,1.359-1.032,2.602-1.597,3.721c-1.3-0.133-2.65-0.23-4.034-0.295C45.186,118.713,45.34,117.668,45.492,116.5z
	 M49.724,121.234c0.025,0.004,0.053,0.006,0.078,0.01c0.983,0.111,1.929,0.244,2.834,0.395c0.265,0.045,0.52,0.092,0.774,0.137
	c-2.275,2.086-4.792,3.598-7.467,4.4C47.308,125.023,48.578,123.344,49.724,121.234z M50.69,125.27
	c1.433-0.883,2.801-1.965,4.088-3.225c0.615,0.131,1.201,0.273,1.758,0.424C54.688,123.615,52.732,124.559,50.69,125.27z
	 M55.763,121.023c1.831-1.988,3.48-4.346,4.9-7.002c1.519,0.365,2.873,0.771,4.047,1.199c-2.014,2.469-4.315,4.617-6.847,6.373
	c-0.388-0.121-0.788-0.238-1.211-0.35C56.364,121.168,56.065,121.096,55.763,121.023z M57.549,123.195
	c0.147-0.094,0.288-0.193,0.436-0.291c0.028,0.012,0.058,0.021,0.084,0.029C57.897,123.02,57.725,123.109,57.549,123.195z
	 M59.522,122.17c-0.103-0.039-0.21-0.078-0.316-0.119c2.446-1.791,4.677-3.939,6.632-6.387c0.551,0.234,1.043,0.477,1.487,0.721
	C64.997,118.635,62.374,120.584,59.522,122.17z M70.559,103.861c-0.417-0.125-0.843-0.248-1.278-0.369
	c-1.371-0.371-2.838-0.715-4.377-1.029c0.68-2.977,1.124-6.119,1.301-9.379c0.314,0.059,0.63,0.115,0.935,0.174
	c2.194,0.434,4.2,0.917,6.021,1.438c-0.367,3.254-1.104,6.375-2.156,9.307C70.854,103.955,70.711,103.908,70.559,103.861z
	 M75.102,105.549c-0.908-0.418-1.91-0.816-3-1.188c1.055-2.946,1.802-6.072,2.186-9.331c1.375,0.426,2.627,0.874,3.746,1.339
	C77.458,99.592,76.46,102.671,75.102,105.549z M85.048,90.506c-1.082-0.2-2.188-0.045-3.255,0.461c-1.158,0.551-2,1.889-2.512,3.995
	c-0.632-1.526-1.558-2.677-2.771-3.435c-1.292-0.808-2.82-1.3-4.557-1.465c1.001-0.714,1.657-1.566,1.958-2.556
	c0.425-1.385,0.1-2.983-0.965-4.763c1.664,0.228,3.217-0.552,4.584-2.3c0.967-1.235,1.62-2.565,1.955-3.97
	c1.264,3.039,2.56,5.087,3.861,6.104c0.435,0.342,0.874,0.605,1.311,0.79c-0.699,1.107-0.932,2.382-0.694,3.798
	C84.17,88.41,84.534,89.527,85.048,90.506z"/>
</svg>
