<?xml version="1.0" encoding="utf-8"?>
<!-- Generator: Adobe Illustrator 14.0.0, SVG Export Plug-In . SVG Version: 6.00 Build 43363)  -->
<!DOCTYPE svg PUBLIC "-//W3C//DTD SVG 1.1//EN" "http://www.w3.org/Graphics/SVG/1.1/DTD/svg11.dtd">
<svg version="1.1" id="Layer_1" xmlns="http://www.w3.org/2000/svg" xmlns:xlink="http://www.w3.org/1999/xlink" x="0px" y="0px"
	 width="30px" height="30px" viewBox="0 0 30 30" enable-background="new 0 0 30 30" xml:space="preserve">
<g>
	<path fill="#FFFFFF" d="M12.5,18.75c-1.669,0-3.239-0.65-4.419-1.83C6.9,15.739,6.25,14.17,6.25,12.5
		c0-0.345-0.28-0.625-0.625-0.625S5,12.155,5,12.5c0,4.143,3.358,7.5,7.5,7.5c0.345,0,0.625-0.279,0.625-0.625
		C13.125,19.03,12.845,18.75,12.5,18.75z"/>
	<path fill="#FFFFFF" d="M12.5,21.25c-1.182,0-2.328-0.231-3.406-0.687c-1.042-0.44-1.978-1.072-2.781-1.875
		c-0.804-0.804-1.435-1.74-1.876-2.782C3.981,14.827,3.75,13.682,3.75,12.5c0-0.345-0.28-0.625-0.625-0.625S2.5,12.155,2.5,12.5
		c0,5.522,4.477,10,10,10c0.345,0,0.625-0.279,0.625-0.625C13.125,21.53,12.845,21.25,12.5,21.25z"/>
	<path fill="#FFFFFF" d="M12.5,16.875c2.417,0,4.375-1.959,4.375-4.375c0-2.417-1.958-4.375-4.375-4.375S8.125,10.083,8.125,12.5
		C8.125,14.916,10.083,16.875,12.5,16.875z M12.5,9.375c1.723,0,3.125,1.402,3.125,3.125c0,1.724-1.402,3.125-3.125,3.125
		S9.375,14.224,9.375,12.5C9.375,10.777,10.777,9.375,12.5,9.375z"/>
	<path fill="#FFFFFF" d="M12.5,13.125c0.345,0,0.625-0.28,0.625-0.625c0-0.345-0.28-0.625-0.625-0.625s-0.625,0.281-0.625,0.625
		C11.875,12.845,12.155,13.125,12.5,13.125z"/>
	<path fill="#FFFFFF" d="M29.994,24.1h0.004V11.875c0-1.035-0.839-1.875-1.875-1.875c-0.22,0-0.431,0.038-0.625,0.107V9.375
		c0-1.035-0.84-1.875-1.875-1.875c-0.245,0-0.477,0.047-0.691,0.132c-0.199-0.73-0.828-1.283-1.598-1.37
		C21.174,2.52,17.131,0,12.5,0C5.597,0,0,5.597,0,12.5S5.597,25,12.5,25c1.979,0,3.85-0.461,5.512-1.279l1.171,2.826
		c0.003,0.007,0.005,0.014,0.009,0.022l0.007,0.018v-0.001C20.058,28.593,22.052,30,24.374,30C27.481,30,30,27.481,30,24.374
		C30,24.281,29.998,24.19,29.994,24.1z M16.879,22.866c-1.386,0.586-2.859,0.884-4.379,0.884c-1.519,0-2.992-0.298-4.379-0.884
		c-1.339-0.566-2.542-1.377-3.576-2.411c-1.033-1.034-1.845-2.237-2.411-3.576C1.547,15.492,1.25,14.02,1.25,12.5
		c0-1.519,0.297-2.992,0.884-4.379C2.7,6.782,3.512,5.579,4.545,4.545C5.579,3.512,6.782,2.7,8.121,2.134
		C9.508,1.547,10.981,1.25,12.5,1.25c1.52,0,2.993,0.297,4.379,0.884c1.339,0.566,2.543,1.378,3.577,2.411
		c0.618,0.619,1.156,1.298,1.611,2.031c-0.363,0.248-0.634,0.62-0.753,1.056c-0.032-0.013-0.064-0.024-0.097-0.035
		C19.501,4.555,16.242,2.5,12.5,2.5c-0.345,0-0.625,0.28-0.625,0.625c0,0.346,0.28,0.625,0.625,0.625
		c1.182,0,2.328,0.231,3.406,0.688c1.042,0.44,1.977,1.071,2.782,1.876c0.422,0.422,0.796,0.881,1.121,1.373
		c-0.397,0.192-0.716,0.519-0.896,0.922C17.597,6.445,15.217,5,12.5,5c-0.345,0-0.625,0.28-0.625,0.625
		c0,0.345,0.28,0.625,0.625,0.625c1.669,0,3.239,0.65,4.42,1.831c1.14,1.141,1.785,2.643,1.828,4.249v3.539
		c-0.506-0.654-1.406-0.917-2.206-0.582c-0.72,0.301-1.153,0.998-1.153,1.73c0,0.241,0.047,0.486,0.146,0.722l1.999,4.826
		C17.319,22.672,17.101,22.772,16.879,22.866z M27.469,27.468c-0.827,0.827-1.925,1.282-3.095,1.282
		c-1.169,0-2.268-0.455-3.094-1.282c-0.508-0.508-0.875-1.119-1.084-1.786l-0.017,0.015l-3.489-8.436l-0.001-0.002l-0.001-0.001
		c-0.032-0.078-0.048-0.159-0.048-0.241c0-0.253,0.151-0.479,0.385-0.577c0.208-0.087,0.389-0.038,0.478-0.001
		c0.09,0.037,0.253,0.129,0.34,0.337l2.156,4.903v-9.131C19.999,12.532,20,12.516,20,12.5c0-0.017-0.001-0.032-0.002-0.049V9.375
		c0-0.345,0.28-0.625,0.625-0.625c0.344,0,0.625,0.28,0.625,0.625V17.5h1.25v-4.952c0.001-0.016,0.002-0.032,0.002-0.048
		c0-0.017-0.001-0.032-0.002-0.049V8.125c0-0.345,0.28-0.625,0.625-0.625c0.345,0,0.625,0.28,0.625,0.625V17.5h1.25V9.375
		c0-0.345,0.28-0.625,0.625-0.625s0.625,0.28,0.625,0.625V17.5h1.25v-5.625c0-0.344,0.28-0.625,0.625-0.625
		c0.344,0,0.625,0.28,0.625,0.625c0,0,0.003,12.408,0.003,12.5C28.75,25.542,28.295,26.642,27.469,27.468z"/>
</g>
</svg>
