<?xml version="1.0" encoding="utf-8"?>
<!-- Generator: Adobe Illustrator 14.0.0, SVG Export Plug-In . SVG Version: 6.00 Build 43363)  -->
<!DOCTYPE svg PUBLIC "-//W3C//DTD SVG 1.1//EN" "http://www.w3.org/Graphics/SVG/1.1/DTD/svg11.dtd">
<svg version="1.1" id="Layer_1" xmlns="http://www.w3.org/2000/svg" xmlns:xlink="http://www.w3.org/1999/xlink" x="0px" y="0px"
	 width="30px" height="30px" viewBox="0 0 30 30" enable-background="new 0 0 30 30" xml:space="preserve">
<g>
	<defs>
		<rect id="SVGID_1_" width="30" height="30"/>
	</defs>
	<clipPath id="SVGID_2_">
		<use xlink:href="#SVGID_1_"  overflow="visible"/>
	</clipPath>
	<path clip-path="url(#SVGID_2_)" fill="#CB2027" d="M15.014,30C23.251,30,30,23.251,30,15.014C30,6.749,23.251,0,15.014,0
		C6.749,0,0,6.749,0,15.014C0,23.251,6.749,30,15.014,30"/>
	<path clip-path="url(#SVGID_2_)" fill="#FFFFFF" d="M7.732,12.383c0,1.381,0.452,2.737,1.382,3.56
		c0.213,0.188,0.717,0.559,1.062,0.559c0.292,0,0.346-0.345,0.399-0.585c0.398-1.381,0.053-0.796-0.452-1.939
		c-0.531-1.169-0.186-3.056,0.452-3.985c1.195-1.834,2.577-2.498,4.836-2.498c1.276,0,2.258,0.479,2.976,1.089
		c2.552,2.152,0.798,9.061-2.312,8.716c-3.109-0.347-0.585-4.146-0.585-5.82c0-2.577-3.56-2.179-3.56,1.116
		c0,1.142,0.452,1.461,0.372,1.754c-0.479,1.593-0.797,3.401-1.223,5.075c-0.452,1.701-0.399,3.136-0.266,4.863
		c0,0.026,0.026,0.079,0.08,0.079c0.053,0.026,0.08,0,0.106-0.026c1.222-1.222,1.993-3.188,2.285-4.384
		c0.159-0.611,0.372-1.355,0.505-1.994c0.026-0.105,0.292,0.24,0.452,0.399c1.275,1.169,3.507,0.903,4.916,0.054
		c2.763-1.675,3.933-6.404,2.471-9.248c-0.424-0.797-0.823-1.169-1.407-1.807c-2.393-2.418-7.6-2.259-10.151,0.159
		C8.689,8.795,7.732,10.284,7.732,12.383"/>
</g>
</svg>
