<?xml version="1.0" encoding="utf-8"?>
<!-- Generator: Adobe Illustrator 14.0.0, SVG Export Plug-In . SVG Version: 6.00 Build 43363)  -->
<!DOCTYPE svg PUBLIC "-//W3C//DTD SVG 1.1//EN" "http://www.w3.org/Graphics/SVG/1.1/DTD/svg11.dtd">
<svg version="1.1" id="Layer_1" xmlns="http://www.w3.org/2000/svg" xmlns:xlink="http://www.w3.org/1999/xlink" x="0px" y="0px"
	 width="30px" height="30px" viewBox="0 0 30 30" enable-background="new 0 0 30 30" xml:space="preserve">
<g>
	<defs>
		<rect id="SVGID_1_" width="30" height="30"/>
	</defs>
	<clipPath id="SVGID_2_">
		<use xlink:href="#SVGID_1_"  overflow="visible"/>
	</clipPath>
	<path clip-path="url(#SVGID_2_)" fill="#55ACEE" d="M15,30C6.716,30,0,23.284,0,15C0,6.715,6.716,0,15,0c8.284,0,15,6.715,15,15
		C30,23.284,23.284,30,15,30"/>
	<path clip-path="url(#SVGID_2_)" fill="#FFFFFF" d="M17.084,9.142c-1.311,0.477-2.137,1.705-2.043,3.05l0.032,0.519l-0.524-0.063
		c-1.907-0.243-3.573-1.069-4.987-2.458L8.87,9.501L8.691,10.01c-0.377,1.133-0.136,2.331,0.65,3.135
		c0.419,0.445,0.324,0.509-0.398,0.244c-0.252-0.084-0.472-0.148-0.493-0.117c-0.073,0.075,0.178,1.038,0.377,1.419
		c0.272,0.53,0.828,1.048,1.436,1.356l0.514,0.244l-0.608,0.01c-0.586,0-0.607,0.011-0.544,0.233
		c0.209,0.689,1.037,1.42,1.959,1.738l0.649,0.222l-0.565,0.339c-0.838,0.488-1.823,0.763-2.808,0.783
		C8.388,19.628,8,19.671,8,19.703c0,0.105,1.279,0.698,2.022,0.932c2.231,0.688,4.883,0.392,6.874-0.784
		c1.414-0.837,2.828-2.5,3.488-4.11c0.356-0.857,0.713-2.426,0.713-3.177c0-0.487,0.031-0.551,0.618-1.133
		c0.346-0.339,0.67-0.709,0.733-0.815c0.104-0.202,0.094-0.202-0.44-0.021c-0.891,0.318-1.017,0.275-0.576-0.201
		c0.325-0.339,0.713-0.954,0.713-1.134c0-0.031-0.157,0.021-0.335,0.117c-0.188,0.106-0.608,0.265-0.923,0.36l-0.565,0.181
		l-0.513-0.35c-0.283-0.19-0.681-0.402-0.891-0.466C18.383,8.951,17.565,8.972,17.084,9.142"/>
</g>
</svg>
