<?xml version="1.0" encoding="utf-8"?>
<!-- Generator: Adobe Illustrator 14.0.0, SVG Export Plug-In . SVG Version: 6.00 Build 43363)  -->
<!DOCTYPE svg PUBLIC "-//W3C//DTD SVG 1.1//EN" "http://www.w3.org/Graphics/SVG/1.1/DTD/svg11.dtd">
<svg version="1.1" id="Layer_1" xmlns="http://www.w3.org/2000/svg" xmlns:xlink="http://www.w3.org/1999/xlink" x="0px" y="0px"
	 width="30px" height="30px" viewBox="0 0 30 30" enable-background="new 0 0 30 30" xml:space="preserve">
<g>
	<path fill="#FFFFFF" d="M4,23l5-5l1,1l-4,4h18l-4-4l1-1l5,5h2V10l2-2v14.857C30,24.034,29.035,25,27.857,25
		c-15.714,0-10,0-25.714,0C0.965,25,0,24.035,0,22.857V8l2,2v13H4z"/>
	<path fill="#FFFFFF" d="M27.857,5H2.143C1.326,5,0.612,5.464,0.25,6.142l13.234,13.234c0.833,0.833,2.198,0.833,3.03,0
		L27.857,8.034l1.893-1.892C29.388,5.464,28.674,5,27.857,5z M15,18L4,7h22L15,18z"/>
</g>
</svg>
