<?xml version="1.0" encoding="utf-8"?>
<!-- Generator: Adobe Illustrator 14.0.0, SVG Export Plug-In . SVG Version: 6.00 Build 43363)  -->
<!DOCTYPE svg PUBLIC "-//W3C//DTD SVG 1.1//EN" "http://www.w3.org/Graphics/SVG/1.1/DTD/svg11.dtd">
<svg version="1.1" id="Layer_1" xmlns="http://www.w3.org/2000/svg" xmlns:xlink="http://www.w3.org/1999/xlink" x="0px" y="0px"
	 width="30px" height="30px" viewBox="0 0 30 30" enable-background="new 0 0 30 30" xml:space="preserve">
<g>
	<path d="M19.983,13.863c-0.003-1.746-0.472-3.2-1.874-4.424c-0.535-0.469-0.903-1.398-0.888-2.107c0.062-2.656,0-2.215,0-4.937
		c0-0.598,0.011-1.417-0.457-1.777c-1.083-0.834-2.426-0.81-3.519-0.011c-0.465,0.341-0.467,1.15-0.467,1.738
		c0,3.2,0.023,1.023,0.023,4.645c0,0.938-0.538,2.014-1.167,2.77c-1,1.198-1.661,2.392-1.636,3.96
		c0.051,3.127,0.015,3.531,0.015,6.658c0,3.229-0.002,4.338,0.001,7.567c0.003,1.872,0.148,2.018,2.031,2.025
		c1.951,0.007,3.906-0.065,5.853,0.023c1.505,0.068,2.107-0.493,2.101-1.918C19.971,21.724,19.991,20.215,19.983,13.863
		 M16.852,20.684l0.418,2.332l-2.19-1.102l-2.19,1.102l0.418-2.332l-1.771-1.652l2.447-0.34l1.095-2.122l1.094,2.122l2.449,0.34
		L16.852,20.684z"/>
</g>
</svg>
