<?xml version="1.0" encoding="utf-8"?>
<!-- Generator: Adobe Illustrator 14.0.0, SVG Export Plug-In . SVG Version: 6.00 Build 43363)  -->
<!DOCTYPE svg PUBLIC "-//W3C//DTD SVG 1.1//EN" "http://www.w3.org/Graphics/SVG/1.1/DTD/svg11.dtd">
<svg version="1.1" id="Layer_1" xmlns="http://www.w3.org/2000/svg" xmlns:xlink="http://www.w3.org/1999/xlink" x="0px" y="0px"
	 width="30px" height="30px" viewBox="0 0 30 30" enable-background="new 0 0 30 30" xml:space="preserve">
<path fill-rule="evenodd" clip-rule="evenodd" d="M8.115,14.319v5.652c0,0-0.115,0.825-1.079,0.825s-1.079-0.825-1.079-0.825v-5.65
	L8.115,14.319z"/>
<path fill-rule="evenodd" clip-rule="evenodd" d="M23.893,14.319v5.652c0,0-0.115,0.825-1.079,0.825s-1.079-0.825-1.079-0.825v-5.65
	L23.893,14.319z"/>
<path d="M23.185,4c0.629,0,1.367,0.316,1.861,0.709C26.745,6.067,28.354,7.523,30,8.94v3.135c-1.134,0.701-1.218,1.421-1.218,2.298
	c0,3.184,0,11.626,0,11.626h-3.349V12.776H4.566V26H1.218c0,0,0-8.442,0-11.626c0-0.877-0.083-1.598-1.218-2.298V8.94
	c1.646-1.417,3.255-2.873,4.955-4.231C5.449,4.316,6.187,4,6.815,4C9.574,4,20.426,4,23.185,4z"/>
</svg>
