<?xml version="1.0" encoding="utf-8"?>
<!-- Generator: Adobe Illustrator 14.0.0, SVG Export Plug-In . SVG Version: 6.00 Build 43363)  -->
<!DOCTYPE svg PUBLIC "-//W3C//DTD SVG 1.1//EN" "http://www.w3.org/Graphics/SVG/1.1/DTD/svg11.dtd">
<svg version="1.1" id="Layer_1" xmlns="http://www.w3.org/2000/svg" xmlns:xlink="http://www.w3.org/1999/xlink" x="0px" y="0px"
	 width="30px" height="30px" viewBox="0 0 30 30" enable-background="new 0 0 30 30" xml:space="preserve">
<g>
	<path d="M29.438,26.811c0,0-2.781-2.916-5.437-5.812c1.83-1.759,3.035-4.461,3-7.5C26.916,6.251,20.749,0,13.5,0S0,6.251,0,13.5
		C0,20.749,6.251,27,13.5,27c2.956,0,5.307-1.355,7.5-3l5.812,5.438C27.158,29.782,27.525,30,28.125,30
		C29.162,30,30,29.161,30,28.125C30,27.715,29.897,27.273,29.438,26.811z M3,13.5C3,8.321,8.321,3.001,13.5,3.001
		c5.178,0,10.5,5.32,10.5,10.499s-5.322,10.5-10.5,10.5C8.321,23.999,3,18.678,3,13.5z"/>
</g>
</svg>
