<?xml version="1.0" encoding="utf-8"?>
<!-- Generator: Adobe Illustrator 19.2.1, SVG Export Plug-In . SVG Version: 6.00 Build 0)  -->
<svg version="1.1" id="Layer_1" xmlns="http://www.w3.org/2000/svg" xmlns:xlink="http://www.w3.org/1999/xlink" x="0px" y="0px"
	 viewBox="0 0 20 20" style="enable-background:new 0 0 20 20;" xml:space="preserve">
<style type="text/css">
	.st0{fill:#FFFFFF;}
</style>
<g>
	<path class="st0" d="M19.9,7.5c-0.2-0.5-0.6-0.9-1.2-1l-5.2-0.8l-2.3-4.8C11.1,0.3,10.6,0,10,0C9.4,0,8.9,0.3,8.7,0.8L6.4,5.7
		L1.2,6.5c-0.5,0.1-1,0.5-1.2,1C-0.1,8,0,8.5,0.4,8.9l3.8,3.9l-0.9,5.5c-0.1,0.5,0.1,1.1,0.6,1.4C4.2,19.9,4.5,20,4.8,20
		c0.2,0,0.5-0.1,0.7-0.2l4.5-2.5l4.5,2.5c0.2,0.1,0.5,0.2,0.7,0.2c0.3,0,0.6-0.1,0.8-0.3c0.5-0.3,0.7-0.9,0.6-1.4l-0.9-5.5l3.8-3.9
		C20,8.5,20.1,8,19.9,7.5z"/>
</g>
</svg>
