<?xml version="1.0" encoding="utf-8"?>
<!-- Generator: Adobe Illustrator 14.0.0, SVG Export Plug-In . SVG Version: 6.00 Build 43363)  -->
<!DOCTYPE svg PUBLIC "-//W3C//DTD SVG 1.1//EN" "http://www.w3.org/Graphics/SVG/1.1/DTD/svg11.dtd">
<svg version="1.1" id="Layer_1" xmlns="http://www.w3.org/2000/svg" xmlns:xlink="http://www.w3.org/1999/xlink" x="0px" y="0px"
	 width="30px" height="30px" viewBox="0 0 30 30" enable-background="new 0 0 30 30" xml:space="preserve">
<path fill-rule="evenodd" clip-rule="evenodd" d="M9.06,28.25c-2.541-2.542-5.135-5.036-7.652-7.603
	c-1.869-1.906-1.886-4.441,0.008-6.331C5.765,9.975,10.148,5.667,14.551,1.38c1.919-1.871,4.545-1.83,6.473,0.063
	c2.532,2.488,5.044,5,7.533,7.533c1.927,1.962,1.932,4.476-0.031,6.429c-4.354,4.337-8.816,8.566-13.162,12.913
	C13.056,30.625,11.326,30.518,9.06,28.25z M20.68,4.97c-0.322-0.244-0.685-0.458-0.975-0.745c-1.763-1.749-2.111-1.756-3.869-0.028
	c-3.636,3.582-7.273,7.167-10.911,10.746c-2.639,2.596-2.639,2.624,0.081,5.17c0.06,0.057,0.156,0.076,0.269,0.129
	c1.309-0.798,2.637-0.958,3.878,0.149c1.077,0.961,1.15,2.177,0.243,4.304c0.259,0.211,0.601,0.446,0.89,0.733
	c1.749,1.741,2.145,1.749,3.884,0.035c3.637-3.583,7.271-7.168,10.91-10.748c2.631-2.589,2.632-2.626-0.091-5.17
	c-0.06-0.057-0.157-0.072-0.241-0.104c-1.712,0.821-2.929,0.787-3.911-0.179C19.551,7.994,19.768,6.581,20.68,4.97"/>
<path fill-rule="evenodd" clip-rule="evenodd" d="M22.425,14.336l-7.975,7.669L7.66,15.221l7.983-7.682L22.425,14.336z
	 M20.425,14.336l-4.782-4.797L9.66,15.221l4.791,4.784L20.425,14.336z"/>
</svg>
