<?xml version="1.0" encoding="utf-8"?>
<!-- Generator: Adobe Illustrator 14.0.0, SVG Export Plug-In . SVG Version: 6.00 Build 43363)  -->
<!DOCTYPE svg PUBLIC "-//W3C//DTD SVG 1.1//EN" "http://www.w3.org/Graphics/SVG/1.1/DTD/svg11.dtd">
<svg version="1.1" id="Layer_1" xmlns="http://www.w3.org/2000/svg" xmlns:xlink="http://www.w3.org/1999/xlink" x="0px" y="0px"
	 width="30px" height="30px" viewBox="0 0 30 30" enable-background="new 0 0 30 30" xml:space="preserve">
<g>
	<path fill="#FFFFFF" d="M18.973,30H0v-2.952c0-3.092,0.924-5.729,2.746-7.836c1.475-1.706,3.537-3.014,6.004-3.818
		c-1.732-1.683-2.708-3.972-2.708-6.418C6.042,4.026,10.081,0,15.044,0c4.963,0,9.002,4.026,9.002,8.976
		c0,2.447-0.976,4.735-2.708,6.417c1.344,0.437,2.567,1.023,3.645,1.747l-1.114,1.649c-1.145-0.769-2.492-1.359-4.004-1.756
		l-2.836-0.743l2.313-1.796c1.723-1.335,2.71-3.347,2.71-5.518c0-3.854-3.144-6.988-7.008-6.988c-3.865,0-7.009,3.134-7.009,6.988
		c0,2.17,0.988,4.182,2.709,5.518l2.316,1.796l-2.838,0.743c-2.504,0.656-4.567,1.858-5.967,3.478
		c-1.5,1.735-2.261,3.935-2.261,6.538v0.964h16.979V30z"/>
	<path fill="#FFFFFF" d="M29.978,23.181c-0.053-0.164-0.196-0.283-0.366-0.308l-3.365-0.487l-1.505-3.04
		c-0.077-0.154-0.234-0.252-0.406-0.252s-0.331,0.098-0.407,0.252l-1.505,3.04l-3.366,0.487c-0.17,0.025-0.312,0.144-0.365,0.308
		c-0.053,0.163-0.009,0.343,0.114,0.463l2.435,2.366l-0.575,3.342c-0.029,0.169,0.041,0.341,0.181,0.442
		c0.079,0.058,0.172,0.087,0.267,0.087c0.072,0,0.144-0.015,0.21-0.049l3.01-1.574l3.01,1.584c0.066,0.035,0.139,0.067,0.211,0.067
		c0,0,0.001,0,0.001,0c0.25,0,0.454-0.217,0.454-0.467c0-0.04-0.005-0.092-0.014-0.128l-0.568-3.305l2.435-2.366
		C29.987,23.524,30.031,23.344,29.978,23.181z M26.625,25.529c-0.107,0.104-0.155,0.253-0.13,0.4l0.46,2.673l-2.408-1.262
		c-0.132-0.069-0.29-0.069-0.422,0l-2.408,1.262l0.459-2.673c0.025-0.146-0.023-0.296-0.13-0.4l-1.948-1.893l2.692-0.391
		c0.148-0.021,0.276-0.113,0.342-0.247l1.204-2.432l1.204,2.432c0.066,0.134,0.193,0.226,0.341,0.247l2.693,0.391L26.625,25.529z"/>
</g>
</svg>
