<?xml version="1.0" encoding="utf-8"?>
<!-- Generator: Adobe Illustrator 14.0.0, SVG Export Plug-In . SVG Version: 6.00 Build 43363)  -->
<!DOCTYPE svg PUBLIC "-//W3C//DTD SVG 1.1//EN" "http://www.w3.org/Graphics/SVG/1.1/DTD/svg11.dtd">
<svg version="1.1" id="Layer_1" xmlns="http://www.w3.org/2000/svg" xmlns:xlink="http://www.w3.org/1999/xlink" x="0px" y="0px"
	 width="30px" height="30px" viewBox="0 0 30 30" enable-background="new 0 0 30 30" xml:space="preserve">
<g>
	<path fill="#FFFFFF" d="M23,0C23.358,0.063,7,0,7,0C6.143,0,5,1.142,5,2v26c0,0.849,1.133,2,2,2h16c0.867,0,2-1.141,2-2V2
		C24.986,1.148,23.795-0.013,23,0z M14.943,28.97C13.991,28.97,13,27.942,13,27c0-0.943,1.048-2,2-2c0.953,0,2,1.057,2,2
		C17,27.942,15.896,28.97,14.943,28.97z M23,24H7V4h16V24z"/>
</g>
</svg>
