<?xml version="1.0" encoding="utf-8"?>
<!-- Generator: Adobe Illustrator 14.0.0, SVG Export Plug-In . SVG Version: 6.00 Build 43363)  -->
<!DOCTYPE svg PUBLIC "-//W3C//DTD SVG 1.1//EN" "http://www.w3.org/Graphics/SVG/1.1/DTD/svg11.dtd">
<svg version="1.1" id="Layer_1" xmlns="http://www.w3.org/2000/svg" xmlns:xlink="http://www.w3.org/1999/xlink" x="0px" y="0px"
	 width="30px" height="30px" viewBox="0 0 30 30" enable-background="new 0 0 30 30" xml:space="preserve">
<g>
	<path fill-rule="evenodd" clip-rule="evenodd" fill="#FFFFFF" d="M27.931,30H2.069C0.926,30,0,29.066,0,27.914V4.695
		c0-1.152,0.926-2.087,2.069-2.087h3.104v3.13c0,1.297,1.042,2.348,2.327,2.348c1.286,0,2.328-1.051,2.328-2.348v-3.13h10.604V5.87
		c0,1.225,0.984,2.217,2.198,2.217s2.198-0.992,2.198-2.217V2.608h3.104C29.074,2.608,30,3.543,30,4.695v23.218
		C30,29.066,29.074,30,27.931,30z M27.931,10.174H2.069v17.479h25.862V10.174z M13.707,22.175l6.724-6.783l1.552,1.565l-8.276,8.348
		l-4.655-4.696l1.552-1.565L13.707,22.175z M22.5,7.305c-0.857,0-1.552-0.701-1.552-1.566V1.565C20.948,0.7,21.643,0,22.5,0
		s1.551,0.7,1.551,1.565v4.174C24.051,6.604,23.357,7.305,22.5,7.305z M7.5,7.305c-0.857,0-1.551-0.701-1.551-1.566V1.565
		C5.949,0.7,6.643,0,7.5,0s1.552,0.7,1.552,1.565v4.174C9.052,6.604,8.357,7.305,7.5,7.305z"/>
</g>
</svg>
