<?xml version="1.0" encoding="utf-8"?>
<!-- Generator: Adobe Illustrator 14.0.0, SVG Export Plug-In . SVG Version: 6.00 Build 43363)  -->
<!DOCTYPE svg PUBLIC "-//W3C//DTD SVG 1.1//EN" "http://www.w3.org/Graphics/SVG/1.1/DTD/svg11.dtd">
<svg version="1.1" id="Layer_1" xmlns="http://www.w3.org/2000/svg" xmlns:xlink="http://www.w3.org/1999/xlink" x="0px" y="0px"
	 width="30px" height="30px" viewBox="0 0 30 30" enable-background="new 0 0 30 30" xml:space="preserve">
<g>
	<defs>
		<rect id="SVGID_1_" width="30" height="30"/>
	</defs>
	<clipPath id="SVGID_2_">
		<use xlink:href="#SVGID_1_"  overflow="visible"/>
	</clipPath>
	<path clip-path="url(#SVGID_2_)" fill="#3B5998" d="M15,30C6.716,30,0,23.284,0,15C0,6.715,6.716,0,15,0s15,6.715,15,15
		C30,23.284,23.284,30,15,30"/>
	<path clip-path="url(#SVGID_2_)" fill="#FFFFFF" d="M12.882,23.16h3.372v-8.161h2.25l0.298-2.812h-2.548l0.004-1.408
		c0-0.733,0.07-1.127,1.122-1.127h1.406V6.84h-2.25c-2.703,0-3.653,1.365-3.653,3.659v1.688h-1.685V15h1.685L12.882,23.16
		L12.882,23.16z"/>
</g>
</svg>
