<?xml version="1.0" encoding="utf-8"?>
<!-- Generator: Adobe Illustrator 14.0.0, SVG Export Plug-In . SVG Version: 6.00 Build 43363)  -->
<!DOCTYPE svg PUBLIC "-//W3C//DTD SVG 1.1//EN" "http://www.w3.org/Graphics/SVG/1.1/DTD/svg11.dtd">
<svg version="1.1" id="Layer_1" xmlns="http://www.w3.org/2000/svg" xmlns:xlink="http://www.w3.org/1999/xlink" x="0px" y="0px"
	 width="80px" height="109px" viewBox="0 0 80 109" enable-background="new 0 0 80 109" xml:space="preserve">
<path fill="#FFFFFF" d="M33.134,101.743c-0.473-0.508-0.979-0.994-1.514-1.459c-0.537-0.462-1.042-0.935-1.515-1.411
	c-0.475-0.474-0.865-0.95-1.168-1.426c-0.307-0.475-0.458-0.967-0.458-1.475c0-0.761,0.242-1.346,0.725-1.758
	c0.485-0.413,1.264-0.618,2.337-0.618c0.168,0,0.34,0.005,0.521,0.015c0.179,0.013,0.353,0.028,0.522,0.048
	c0.167,0.023,0.334,0.033,0.504,0.033v-0.827c-0.148,0-0.306-0.009-0.474-0.031c-0.146-0.021-0.31-0.036-0.49-0.047
	c-0.178-0.011-0.361-0.016-0.551-0.016c-1.136,0-2.074,0.259-2.81,0.776c-0.738,0.52-1.104,1.327-1.104,2.425
	c0,0.592,0.151,1.148,0.458,1.664c0.303,0.518,0.693,1.027,1.168,1.522c0.472,0.496,0.977,0.977,1.514,1.443
	c0.537,0.464,1.042,0.935,1.516,1.408c0.475,0.477,0.863,0.969,1.167,1.475c0.305,0.507,0.458,1.036,0.458,1.586
	c0,1.014-0.341,1.785-1.025,2.313c-0.685,0.53-1.626,0.792-2.826,0.792c-0.714,0-1.367-0.052-1.957-0.159
	c-0.316-0.042-0.622-0.092-0.916-0.158v0.825c0.294,0.063,0.61,0.117,0.947,0.158c0.294,0.042,0.605,0.078,0.931,0.111
	c0.327,0.03,0.657,0.046,0.994,0.046c0.59,0,1.164-0.069,1.721-0.205c0.558-0.137,1.057-0.364,1.5-0.682
	c0.443-0.318,0.794-0.724,1.058-1.22c0.263-0.495,0.394-1.105,0.394-1.822c0-0.613-0.152-1.195-0.458-1.744
	C33.998,102.777,33.607,102.25,33.134,101.743"/>
<rect x="18.945" y="92.833" fill="#FFFFFF" width="0.821" height="16.073"/>
<path fill="#FFFFFF" d="M9.645,94.928c-1.569-1.397-3.889-2.093-6.962-2.093H0v16.072h2.683c3.073,0,5.394-0.702,6.962-2.108
	c1.567-1.406,2.351-3.386,2.351-5.944C11.996,98.298,11.212,96.321,9.645,94.928 M8.917,106.305c-1.484,1.228-3.563,1.84-6.235,1.84
	H0.82v-14.55h1.863c2.672,0,4.75,0.609,6.235,1.823c1.484,1.215,2.227,3.027,2.227,5.436
	C11.145,103.263,10.401,105.082,8.917,106.305"/>
<path fill="#FFFFFF" d="M55.914,105.007c-0.654,0.973-1.501,1.743-2.542,2.315c-1.042,0.57-2.195,0.854-3.457,0.854
	c-1.01,0-1.954-0.175-2.826-0.522c-0.874-0.349-1.641-0.845-2.304-1.49c-0.664-0.645-1.185-1.415-1.563-2.316
	c-0.379-0.897-0.568-1.884-0.568-2.962c0-1.079,0.184-2.065,0.553-2.964c0.368-0.898,0.873-1.669,1.515-2.312
	c0.642-0.646,1.395-1.143,2.258-1.49c0.862-0.35,1.798-0.524,2.809-0.524c0.379,0,0.736,0.031,1.074,0.096
	c0.336,0.063,0.631,0.127,0.884,0.189c0.295,0.084,0.569,0.17,0.82,0.255l0.506-0.73c-0.273-0.126-0.58-0.234-0.916-0.317
	c-0.294-0.083-0.642-0.157-1.042-0.224c-0.4-0.063-0.841-0.094-1.326-0.094c-1.115,0-2.156,0.201-3.125,0.604
	c-0.968,0.4-1.809,0.955-2.525,1.663c-0.716,0.708-1.278,1.559-1.689,2.552c-0.411,0.992-0.617,2.091-0.617,3.296
	c0,1.205,0.21,2.302,0.632,3.297c0.421,0.993,1,1.842,1.737,2.549c0.736,0.711,1.594,1.265,2.573,1.666
	c0.979,0.403,2.024,0.602,3.141,0.602c1.453,0,2.767-0.342,3.946-1.028c1.179-0.688,2.137-1.603,2.874-2.743v-4.152h-3.347v0.76
	h2.526V105.007z"/>
<path fill="#FFFFFF" d="M77.634,95.148c-0.738-0.74-1.596-1.32-2.576-1.742c-0.978-0.423-2.024-0.635-3.139-0.635
	c-1.116,0-2.162,0.211-3.141,0.635c-0.977,0.422-1.836,1.002-2.571,1.742c-0.739,0.741-1.317,1.601-1.738,2.583
	c-0.421,0.985-0.631,2.035-0.631,3.155c0,1.12,0.21,2.172,0.631,3.153c0.421,0.983,0.999,1.844,1.738,2.583
	c0.735,0.74,1.594,1.322,2.571,1.746c0.979,0.42,2.025,0.631,3.141,0.631c1.115,0,2.162-0.211,3.139-0.631
	c0.98-0.424,1.838-1.006,2.576-1.746c0.735-0.739,1.313-1.6,1.734-2.583c0.42-0.981,0.632-2.033,0.632-3.153
	c0-1.12-0.211-2.17-0.632-3.155C78.947,96.749,78.369,95.889,77.634,95.148 M78.61,103.723c-0.379,0.877-0.899,1.649-1.562,2.314
	c-0.663,0.665-1.432,1.188-2.306,1.569c-0.873,0.38-1.815,0.569-2.824,0.569c-1.011,0-1.953-0.189-2.826-0.569
	c-0.873-0.381-1.641-0.905-2.304-1.569c-0.662-0.666-1.183-1.437-1.562-2.314c-0.379-0.875-0.568-1.824-0.568-2.837
	c0-1.014,0.188-1.959,0.568-2.837c0.379-0.877,0.9-1.648,1.562-2.315c0.663-0.665,1.432-1.187,2.304-1.569
	c0.874-0.379,1.815-0.57,2.826-0.57c1.008,0,1.951,0.191,2.824,0.57c0.874,0.382,1.643,0.904,2.306,1.569
	c0.663,0.667,1.184,1.438,1.562,2.315c0.379,0.877,0.568,1.823,0.568,2.837C79.179,101.899,78.99,102.848,78.61,103.723"/>
<path fill="#FFFFFF" d="M34.547,52.077c-1.509-1.515-2.7-3.292-3.572-5.332c-0.875-2.038-1.309-4.205-1.309-6.501
	c0-2.296,0.435-4.462,1.309-6.503c0.873-2.039,2.063-3.815,3.572-5.331c1.506-1.515,3.277-2.709,5.308-3.583
	c0.55-0.238,1.107-0.441,1.674-0.614c-1.532-0.467-3.13-0.704-4.801-0.704c-2.284,0-4.443,0.438-6.476,1.318
	c-2.029,0.874-3.801,2.069-5.309,3.583c-1.507,1.516-2.7,3.292-3.571,5.331c-0.874,2.042-1.309,4.207-1.309,6.503
	c0,2.296,0.435,4.463,1.309,6.501c0.871,2.04,2.064,3.816,3.571,5.332c1.508,1.512,3.279,2.709,5.309,3.586
	c2.033,0.875,4.191,1.314,6.476,1.314c1.671,0,3.269-0.237,4.801-0.703c-0.566-0.173-1.124-0.376-1.674-0.611
	C37.824,54.786,36.054,53.589,34.547,52.077"/>
<radialGradient id="SVGID_1_" cx="41.7383" cy="40.1235" r="37.6336" gradientTransform="matrix(1 0 0 1.0041 0 2.899170e-04)" gradientUnits="userSpaceOnUse">
	<stop  offset="0" style="stop-color:#FF1FFF"/>
	<stop  offset="0.1485" style="stop-color:#F11CFF"/>
	<stop  offset="0.428" style="stop-color:#CD14FF"/>
	<stop  offset="0.8056" style="stop-color:#9307FF"/>
	<stop  offset="0.9944" style="stop-color:#7300FF"/>
	<stop  offset="1" style="stop-color:#7300FF"/>
</radialGradient>
<path fill="url(#SVGID_1_)" d="M28.687,60.533c-2.669-1.153-4.995-2.723-6.975-4.712c-1.983-1.99-3.547-4.324-4.693-7.004
	c-1.148-2.679-1.722-5.528-1.722-8.544c0-3.017,0.574-5.863,1.722-8.543c1.146-2.681,2.71-5.014,4.693-7.005
	c1.98-1.989,4.306-3.562,6.975-4.709c2.669-1.156,5.508-1.731,8.512-1.731c3.002,0,5.838,0.575,8.508,1.731
	c2.671,1.147,4.995,2.72,6.978,4.709c1.979,1.992,3.544,4.324,4.693,7.005c1.146,2.681,1.72,5.526,1.72,8.543
	c0,3.016-0.573,5.865-1.72,8.544c-1.149,2.68-2.714,5.015-4.693,7.004c-1.983,1.989-4.307,3.56-6.978,4.712
	c-2.669,1.152-5.506,1.729-8.508,1.729C34.195,62.262,31.356,61.685,28.687,60.533 M6.771,0v80.572h22.524
	c7.451,0,14.186-0.867,20.019-2.58c5.859-1.719,10.876-4.3,14.914-7.668c4.046-3.378,7.172-7.638,9.292-12.662
	c2.115-5.01,3.185-10.876,3.185-17.435c0-6.549-1.07-12.414-3.185-17.433c-2.127-5.028-5.254-9.29-9.292-12.661
	c-4.035-3.37-9.055-5.93-14.917-7.613C43.479,0.849,36.746,0,29.295,0H6.771z"/>
</svg>
