<?xml version="1.0" encoding="utf-8"?>
<!-- Generator: Adobe Illustrator 14.0.0, SVG Export Plug-In . SVG Version: 6.00 Build 43363)  -->
<!DOCTYPE svg PUBLIC "-//W3C//DTD SVG 1.1//EN" "http://www.w3.org/Graphics/SVG/1.1/DTD/svg11.dtd">
<svg version="1.1" id="Layer_1" xmlns="http://www.w3.org/2000/svg" xmlns:xlink="http://www.w3.org/1999/xlink" x="0px" y="0px"
	 width="160px" height="40px" viewBox="0 0 160 40" enable-background="new 0 0 160 40" xml:space="preserve">
<path fill="#FFFFFF" d="M1.87,38.945V1.062h13.135c2.871,0,5.413,0.54,7.629,1.618c2.214,1.08,4.077,2.513,5.583,4.298
	c1.506,1.788,2.658,3.819,3.457,6.102c0.795,2.283,1.197,4.624,1.197,7.03c0,2.512-0.418,4.899-1.25,7.163
	c-0.835,2.264-2.022,4.264-3.562,5.995c-1.542,1.734-3.413,3.112-5.61,4.14c-2.199,1.025-4.68,1.537-7.443,1.537H1.87z
	 M15.005,36.983c2.267,0,4.36-0.425,6.273-1.274c1.915-0.848,3.562-2.016,4.943-3.501c1.385-1.486,2.454-3.254,3.219-5.307
	c0.762-2.051,1.143-4.279,1.143-6.684c0-2.37-0.356-4.599-1.064-6.687c-0.708-2.085-1.737-3.907-3.083-5.463
	c-1.349-1.557-2.987-2.787-4.92-3.689c-1.931-0.9-4.104-1.351-6.512-1.351H4.104v33.957H15.005z"/>
<rect x="38.717" y="1.062" fill="#FFFFFF" width="2.234" height="37.883"/>
<path fill="#FFFFFF" d="M74.927,12.365c-0.07-1.841-0.462-3.422-1.17-4.75c-0.708-1.326-1.647-2.413-2.818-3.262
	c-1.17-0.849-2.508-1.478-4.014-1.883c-1.508-0.408-3.076-0.61-4.707-0.61c-1.381,0-2.8,0.123-4.252,0.372
	c-1.454,0.247-2.765,0.698-3.935,1.353c-1.168,0.653-2.127,1.548-2.871,2.68c-0.745,1.131-1.118,2.58-1.118,4.349
	c0,1.452,0.285,2.645,0.852,3.583c0.566,0.938,1.303,1.698,2.205,2.283c0.905,0.582,1.915,1.024,3.032,1.326
	c1.116,0.301,2.243,0.54,3.376,0.715c1.596,0.247,3.173,0.425,4.733,0.531c1.56,0.107,3.136,0.265,4.732,0.479
	c1.382,0.211,2.621,0.537,3.721,0.979c1.1,0.443,2.038,1.035,2.817,1.778c0.781,0.743,1.374,1.653,1.782,2.732
	c0.406,1.08,0.612,2.361,0.612,3.846c0,2.194-0.453,3.999-1.357,5.412c-0.904,1.415-2.083,2.538-3.536,3.369
	c-1.453,0.833-3.075,1.416-4.865,1.752c-1.789,0.336-3.571,0.505-5.342,0.505c-2.094,0-4.104-0.276-6.036-0.825
	c-1.932-0.547-3.65-1.378-5.156-2.493c-1.509-1.114-2.75-2.511-3.724-4.19c-0.975-1.681-1.567-3.651-1.782-5.917h2.076
	c0.211,1.982,0.75,3.698,1.621,5.148c0.866,1.449,1.966,2.651,3.295,3.607c1.331,0.955,2.837,1.663,4.521,2.122
	c1.681,0.459,3.43,0.69,5.237,0.69c1.524,0,3.066-0.124,4.626-0.371c1.56-0.249,2.976-0.719,4.253-1.407
	c1.275-0.69,2.312-1.628,3.112-2.812c0.795-1.186,1.195-2.732,1.195-4.642c0-1.804-0.381-3.299-1.143-4.483
	c-0.765-1.186-2.048-2.026-3.855-2.521c-1.242-0.353-2.535-0.591-3.881-0.715c-1.347-0.124-2.73-0.239-4.148-0.346
	s-2.844-0.266-4.279-0.479c-1.436-0.212-2.864-0.563-4.281-1.062c-2.02-0.707-3.625-1.759-4.812-3.155
	c-1.188-1.398-1.782-3.211-1.782-5.44c0-2.086,0.434-3.811,1.303-5.173c0.869-1.36,1.986-2.449,3.351-3.262
	c1.365-0.813,2.897-1.379,4.599-1.697C58.816,0.161,60.518,0,62.218,0c1.915,0,3.749,0.24,5.506,0.718
	c1.754,0.476,3.303,1.219,4.651,2.227c1.347,1.01,2.429,2.291,3.244,3.847c0.815,1.557,1.257,3.414,1.329,5.573H74.927z"/>
<path fill="#FFFFFF" d="M116.137,38.945v-11.99c-0.428,1.805-1.109,3.493-2.049,5.066c-0.939,1.576-2.119,2.945-3.535,4.112
	c-1.418,1.167-3.049,2.088-4.893,2.759c-1.842,0.672-3.881,1.01-6.115,1.01c-2.834,0-5.361-0.54-7.576-1.618
	c-2.217-1.08-4.086-2.53-5.609-4.352s-2.695-3.943-3.51-6.366c-0.814-2.424-1.225-4.979-1.225-7.668c0-2.972,0.473-5.678,1.41-8.119
	c0.941-2.44,2.227-4.537,3.857-6.288c1.631-1.75,3.541-3.103,5.742-4.058c2.197-0.954,4.535-1.433,7.018-1.433
	c2.232,0,4.334,0.284,6.301,0.849c1.969,0.566,3.723,1.442,5.264,2.627c1.543,1.185,2.838,2.688,3.883,4.509
	c1.045,1.823,1.797,3.971,2.26,6.447h-2.072c-0.463-2.122-1.164-3.963-2.102-5.52c-0.941-1.555-2.086-2.846-3.43-3.873
	c-1.35-1.024-2.871-1.784-4.572-2.282c-1.705-0.493-3.51-0.743-5.424-0.743c-2.199,0-4.266,0.436-6.195,1.3
	c-1.934,0.869-3.615,2.08-5.051,3.636c-1.436,1.557-2.572,3.432-3.404,5.624s-1.25,4.635-1.25,7.322c0,2.441,0.355,4.758,1.064,6.95
	c0.707,2.194,1.738,4.12,3.084,5.784c1.348,1.663,3.004,2.979,4.971,3.951c1.969,0.974,4.209,1.461,6.729,1.461
	c2.443,0,4.652-0.434,6.619-1.3c1.969-0.867,3.631-2.053,4.996-3.556c1.367-1.503,2.42-3.271,3.164-5.306
	c0.746-2.034,1.135-4.219,1.172-6.555H99.332v-1.907h18.826v19.523H116.137z"/>
<path fill="#FFFFFF" d="M141.709,39.902c-2.727,0-5.229-0.506-7.498-1.514c-2.266-1.009-4.215-2.413-5.846-4.216
	c-1.633-1.806-2.891-3.963-3.777-6.475c-0.885-2.511-1.328-5.271-1.328-8.277c0-2.936,0.496-5.598,1.49-7.984
	c0.99-2.39,2.338-4.431,4.041-6.13c1.701-1.697,3.676-3.006,5.926-3.927c2.252-0.917,4.654-1.378,7.205-1.378
	c2.658,0,5.096,0.469,7.312,1.407c2.215,0.937,4.121,2.254,5.717,3.952c1.594,1.697,2.836,3.749,3.721,6.155
	c0.887,2.406,1.328,5.076,1.328,8.012c0,2.865-0.467,5.545-1.408,8.039c-0.938,2.493-2.225,4.65-3.854,6.471
	c-1.633,1.824-3.562,3.256-5.797,4.298C146.709,39.379,144.297,39.902,141.709,39.902 M141.709,37.885
	c2.27,0,4.389-0.468,6.355-1.405c1.969-0.938,3.668-2.221,5.105-3.847c1.434-1.628,2.561-3.556,3.375-5.784
	c0.814-2.229,1.223-4.616,1.223-7.162c0-2.652-0.389-5.058-1.168-7.217c-0.781-2.157-1.871-4.014-3.271-5.571
	s-3.084-2.758-5.051-3.607c-1.969-0.851-4.121-1.276-6.461-1.276c-2.268,0-4.395,0.425-6.381,1.276
	c-1.984,0.849-3.713,2.043-5.184,3.58c-1.473,1.539-2.631,3.38-3.484,5.52c-0.848,2.141-1.275,4.5-1.275,7.083
	c0,2.689,0.391,5.165,1.17,7.428c0.781,2.264,1.879,4.211,3.297,5.837c1.418,1.628,3.129,2.891,5.131,3.793
	S139.301,37.885,141.709,37.885"/>
<path fill="#FFFFFF" d="M13.873,25.855c-0.753-0.75-1.348-1.633-1.785-2.647c-0.436-1.01-0.655-2.085-0.655-3.226
	c0-1.14,0.219-2.213,0.655-3.228c0.437-1.012,1.032-1.895,1.785-2.646c0.752-0.751,1.637-1.345,2.651-1.778
	c0.274-0.117,0.554-0.22,0.837-0.305c-0.767-0.233-1.564-0.349-2.399-0.349c-1.14,0-2.219,0.217-3.235,0.654
	c-1.012,0.433-1.897,1.027-2.651,1.778c-0.753,0.751-1.345,1.633-1.782,2.646c-0.436,1.015-0.655,2.088-0.655,3.228
	c0,1.141,0.219,2.216,0.655,3.226c0.437,1.015,1.029,1.897,1.782,2.647c0.753,0.75,1.639,1.345,2.651,1.779
	c1.016,0.436,2.095,0.652,3.235,0.652c0.834,0,1.632-0.117,2.399-0.348c-0.283-0.088-0.563-0.188-0.837-0.305
	C15.51,27.2,14.625,26.605,13.873,25.855"/>
<path fill="#FFFFFF" d="M33.338,11.323c-1.062-2.497-2.625-4.612-4.64-6.285c-2.015-1.675-4.523-2.942-7.453-3.779
	c-2.911-0.831-6.274-1.251-9.996-1.251H0V40h11.25c3.721,0,7.084-0.43,9.998-1.281c2.927-0.854,5.432-2.135,7.45-3.804
	c2.02-1.677,3.583-3.794,4.64-6.288c1.055-2.484,1.591-5.396,1.591-8.652C34.929,16.725,34.393,13.814,33.338,11.323 M25.274,24.237
	c-0.573,1.33-1.354,2.49-2.343,3.478c-0.99,0.986-2.152,1.767-3.484,2.338c-1.333,0.572-2.75,0.857-4.25,0.857
	c-1.5,0-2.918-0.285-4.251-0.857c-1.333-0.571-2.494-1.352-3.483-2.338c-0.99-0.987-1.771-2.147-2.344-3.478
	c-0.574-1.327-0.861-2.743-0.861-4.24c0-1.499,0.287-2.91,0.861-4.242c0.573-1.331,1.354-2.487,2.344-3.476
	c0.989-0.989,2.15-1.769,3.483-2.338c1.333-0.575,2.752-0.861,4.251-0.861c1.5,0,2.916,0.286,4.25,0.861
	c1.332,0.569,2.495,1.349,3.484,2.338c0.99,0.988,1.771,2.145,2.343,3.476c0.573,1.332,0.86,2.743,0.86,4.242
	C26.135,21.494,25.848,22.91,25.274,24.237"/>
</svg>
